<svg width="233" height="225" viewBox="0 0 233 225" fill="none" xmlns="http://www.w3.org/2000/svg">
<path d="M45.0625 68.5C45.0625 73.375 44.2708 77.625 42.6875 81.25C41.1458 84.875 38.9792 87.8958 36.1875 90.3125C33.3958 92.7292 30.0625 94.5208 26.1875 95.6875C22.3542 96.8958 18.1458 97.5 13.5625 97.5H11.4375C11.0208 97.5 10.3958 97.4792 9.5625 97.4375C8.72917 97.4375 7.875 97.3542 7 97.1875C6.16667 97.0625 5.41667 96.8333 4.75 96.5C4.125 96.1667 3.8125 95.7083 3.8125 95.125C3.8125 94.4583 3.95833 93.7917 4.25 93.125C4.58333 92.5 5 91.9375 5.5 91.4375C6 90.8958 6.5625 90.4583 7.1875 90.125C7.8125 89.75 8.4375 89.5 9.0625 89.375C8.72917 88.9583 8.47917 88.3958 8.3125 87.6875C8.14583 86.9792 8 86.2292 7.875 85.4375C7.75 84.6458 7.64583 83.875 7.5625 83.125C7.52083 82.3333 7.47917 81.6667 7.4375 81.125C6.6875 74.6667 6.04167 68.2292 5.5 61.8125C4.95833 55.3958 4.6875 48.9167 4.6875 42.375C4.6875 38.2083 4.75 34.0833 4.875 30C5 25.9167 5.10417 21.7917 5.1875 17.625C5.27083 15.9167 5.29167 14.2292 5.25 12.5625C5.25 10.8958 5.3125 9.20833 5.4375 7.5C5.1875 7.58333 4.91667 7.625 4.625 7.625C4.33333 7.625 4.02083 7.625 3.6875 7.625C3.0625 7.625 2.4375 7.52083 1.8125 7.3125C1.22917 7.0625 0.9375 6.5 0.9375 5.625C0.9375 4.54167 1.16667 3.66667 1.625 3C2.08333 2.33333 2.66667 1.83333 3.375 1.5C4.08333 1.125 4.875 0.895833 5.75 0.8125C6.66667 0.6875 7.5625 0.625 8.4375 0.625C12.4375 0.625 16.3125 1.125 20.0625 2.125C23.8125 3.125 27.125 4.66667 30 6.75C32.875 8.83333 35.1875 11.5 36.9375 14.75C38.6875 17.9583 39.5625 21.7917 39.5625 26.25C39.5625 29.9167 38.8958 33.4167 37.5625 36.75C36.2292 40.0833 34.2708 43.0417 31.6875 45.625C34.0208 46.625 36.0208 47.9375 37.6875 49.5625C39.3958 51.1458 40.7917 52.9375 41.875 54.9375C42.9583 56.9375 43.75 59.1042 44.25 61.4375C44.7917 63.7292 45.0625 66.0833 45.0625 68.5ZM30.0625 25.375C30.0625 22.875 29.6667 20.6667 28.875 18.75C28.0833 16.7917 26.9792 15.1042 25.5625 13.6875C24.1458 12.2292 22.4583 11.0625 20.5 10.1875C18.5417 9.27083 16.3958 8.58333 14.0625 8.125C14.1458 8.33333 14.1875 8.52083 14.1875 8.6875C14.1875 8.85417 14.1875 9 14.1875 9.125C14.1875 13.0833 14.1458 17 14.0625 20.875C13.9792 24.7083 13.9375 28.5833 13.9375 32.5V39C13.9375 39.8333 13.9583 40.6875 14 41.5625C14.0417 42.3958 14.0625 43.25 14.0625 44.125C15.1458 43.6667 16.2292 43.4375 17.3125 43.4375C18.4375 43.3958 19.5625 43.375 20.6875 43.375C23.8125 41.4167 26.1458 38.8542 27.6875 35.6875C29.2708 32.4792 30.0625 29.0417 30.0625 25.375ZM35.6875 68.375C35.6875 66.375 35.5 64.4375 35.125 62.5625C34.7917 60.6875 34.1875 58.9792 33.3125 57.4375C32.4375 55.8542 31.2917 54.5 29.875 53.375C28.4583 52.25 26.6875 51.4167 24.5625 50.875C21.3958 52.6667 18.0208 53.875 14.4375 54.5C14.7708 59.2083 15.1667 63.9167 15.625 68.625C16.125 73.2917 16.8125 77.9583 17.6875 82.625C17.8958 83.7083 18.125 84.7917 18.375 85.875C18.6667 86.9167 18.8542 88 18.9375 89.125C21.7292 88.75 24.1667 87.9792 26.25 86.8125C28.375 85.6042 30.125 84.1042 31.5 82.3125C32.9167 80.4792 33.9583 78.375 34.625 76C35.3333 73.625 35.6875 71.0833 35.6875 68.375ZM95.3125 58.625C95.3125 59.5 95 60.4167 94.375 61.375C93.75 62.3333 93.0625 63.0417 92.3125 63.5C92.1042 63.625 91.75 63.75 91.25 63.875C90.75 64 90.2083 64.125 89.625 64.25C89.0833 64.3333 88.5417 64.4375 88 64.5625C87.5 64.6458 87.1042 64.7083 86.8125 64.75L88.3125 74C88.7708 76.875 89.1042 79.7708 89.3125 82.6875C89.5625 85.5625 90.1042 88.4167 90.9375 91.25C91.0208 91.5 91.1042 91.7292 91.1875 91.9375C91.2708 92.1458 91.3125 92.4167 91.3125 92.75C91.3125 93.2917 91.1458 93.7083 90.8125 94C90.5208 94.2917 90.1458 94.5 89.6875 94.625C89.2708 94.7917 88.8125 94.8958 88.3125 94.9375C87.8125 94.9792 87.3542 95 86.9375 95H86.0625C84.7708 95 83.7708 94.8958 83.0625 94.6875C82.3958 94.4792 81.875 94.125 81.5 93.625C81.125 93.125 80.875 92.5 80.75 91.75C80.625 90.9583 80.4792 90 80.3125 88.875C79.3125 81.25 78.1875 73.625 76.9375 66C74.3542 66.3333 71.75 66.6458 69.125 66.9375C66.5417 67.2292 63.9375 67.5 61.3125 67.75L59.3125 80C59.2292 80.75 59.1042 81.7708 58.9375 83.0625C58.8125 84.3542 58.6458 85.6875 58.4375 87.0625C58.2708 88.3958 58.0625 89.6458 57.8125 90.8125C57.6042 91.9792 57.3542 92.8333 57.0625 93.375C56.8125 93.875 56.5833 94.2292 56.375 94.4375C56.1667 94.6458 55.7708 94.75 55.1875 94.75C54.4375 94.75 53.6875 94.6042 52.9375 94.3125C52.2292 94.0625 51.5833 93.6875 51 93.1875C50.4583 92.7292 50.0208 92.1667 49.6875 91.5C49.3542 90.8333 49.1875 90.0833 49.1875 89.25C49.1875 88.4167 49.2708 87.5833 49.4375 86.75C49.6458 85.9167 49.8125 85.0833 49.9375 84.25C50.3958 81.5 50.8125 78.7708 51.1875 76.0625C51.5625 73.3125 51.9792 70.5833 52.4375 67.875C52.1458 67.8333 51.8125 67.7708 51.4375 67.6875C51.0625 67.5625 50.6875 67.4167 50.3125 67.25C49.9792 67.0833 49.6875 66.875 49.4375 66.625C49.1875 66.375 49.0625 66.0833 49.0625 65.75C49.0625 65.3333 49.2083 64.9583 49.5 64.625C49.8333 64.25 50.2083 63.9167 50.625 63.625C51.0833 63.2917 51.5417 63.0208 52 62.8125C52.4583 62.5625 52.8542 62.375 53.1875 62.25C54.0625 56.4167 54.8958 50.6042 55.6875 44.8125C56.4792 39.0208 57.1875 33.1667 57.8125 27.25C57.9792 25.6667 58.125 24.0625 58.25 22.4375C58.375 20.8125 58.5 19.1875 58.625 17.5625C58.7917 15.9375 58.9792 14.3333 59.1875 12.75C59.4375 11.1667 59.7708 9.58333 60.1875 8C60.5625 6.5 61.1875 5.29167 62.0625 4.375C62.9375 3.45833 64.2292 3 65.9375 3C66.4375 3 66.9167 3.04167 67.375 3.125C67.875 3.20833 68.3125 3.375 68.6875 3.625C69.7708 4.16667 70.8958 5.64583 72.0625 8.0625C73.2292 10.4792 74.3958 13.4167 75.5625 16.875C76.7292 20.2917 77.8333 24 78.875 28C79.9583 32 80.9375 35.875 81.8125 39.625C82.6875 43.375 83.4375 46.7708 84.0625 49.8125C84.6875 52.8125 85.1458 55.0417 85.4375 56.5C86.3125 56.375 87.1875 56.2708 88.0625 56.1875C88.9375 56.0625 89.8125 56 90.6875 56C91.1042 56 91.5833 56.0208 92.125 56.0625C92.6667 56.1042 93.1667 56.2292 93.625 56.4375C94.125 56.6042 94.5208 56.875 94.8125 57.25C95.1458 57.5833 95.3125 58.0417 95.3125 58.625ZM75.6875 58.125C74.6042 52.2083 73.4167 46.3542 72.125 40.5625C70.875 34.7292 69.3958 28.9167 67.6875 23.125C66.9375 29.4167 66.125 35.6667 65.25 41.875C64.375 48.0833 63.4375 54.2917 62.4375 60.5C64.6875 60.1667 66.8958 59.8125 69.0625 59.4375C71.2708 59.0208 73.4792 58.5833 75.6875 58.125ZM135.375 73.25C135.375 76.3333 134.875 79.25 133.875 82C132.875 84.75 131.438 87.1667 129.562 89.25C127.729 91.2917 125.5 92.9167 122.875 94.125C120.25 95.375 117.333 96 114.125 96C111.292 96 108.667 95.5417 106.25 94.625C103.875 93.75 101.812 92.5 100.062 90.875C98.3125 89.25 96.9375 87.2708 95.9375 84.9375C94.9792 82.6042 94.5 80 94.5 77.125C94.5 76.5417 94.5208 75.8125 94.5625 74.9375C94.6042 74.0625 94.7292 73.2292 94.9375 72.4375C95.1875 71.6042 95.5208 70.9167 95.9375 70.375C96.3958 69.7917 97.0417 69.5 97.875 69.5C98.5417 69.5 99.2708 69.6458 100.062 69.9375C100.896 70.1875 101.667 70.5417 102.375 71C103.083 71.4583 103.667 72.0208 104.125 72.6875C104.625 73.3125 104.875 74 104.875 74.75V78.375C104.875 81.25 105.646 83.6042 107.188 85.4375C108.771 87.2292 111.042 88.125 114 88.125C116.083 88.125 117.875 87.6458 119.375 86.6875C120.875 85.7292 122.083 84.5 123 83C123.958 81.5 124.646 79.8333 125.062 78C125.521 76.125 125.75 74.2917 125.75 72.5C125.75 69 125.021 65.6042 123.562 62.3125C122.146 59.0208 120.354 55.8125 118.188 52.6875C116.021 49.5208 113.667 46.4167 111.125 43.375C108.583 40.3333 106.229 37.3125 104.062 34.3125C101.896 31.3125 100.083 28.3125 98.625 25.3125C97.2083 22.3125 96.5 19.25 96.5 16.125C96.5 13.5833 97 11.3958 98 9.5625C99.0417 7.6875 100.396 6.16667 102.062 5C103.771 3.79167 105.688 2.91667 107.812 2.375C109.979 1.79167 112.208 1.5 114.5 1.5C117.292 1.5 119.792 1.89583 122 2.6875C124.208 3.47917 126.083 4.625 127.625 6.125C129.167 7.625 130.333 9.47917 131.125 11.6875C131.958 13.8542 132.375 16.3333 132.375 19.125C132.375 19.5417 132.354 20.0625 132.312 20.6875C132.271 21.3125 132.167 21.9375 132 22.5625C131.833 23.1458 131.583 23.6667 131.25 24.125C130.917 24.5417 130.458 24.75 129.875 24.75C129.042 24.75 128.208 24.5417 127.375 24.125C126.667 23.75 126.083 23.3958 125.625 23.0625C125.208 22.6875 124.875 22.2917 124.625 21.875C124.375 21.4167 124.188 20.9167 124.062 20.375C123.938 19.8333 123.833 19.1667 123.75 18.375C123.542 16.875 123.271 15.5208 122.938 14.3125C122.604 13.1042 122.104 12.0833 121.438 11.25C120.771 10.4167 119.896 9.77083 118.812 9.3125C117.729 8.85417 116.333 8.625 114.625 8.625C113.417 8.625 112.25 8.75 111.125 9C110.042 9.25 109.083 9.66667 108.25 10.25C107.458 10.8333 106.812 11.6042 106.312 12.5625C105.854 13.4792 105.625 14.625 105.625 16C105.625 17.9167 106.042 19.875 106.875 21.875C107.75 23.875 108.875 25.9167 110.25 28C111.667 30.0833 113.25 32.2292 115 34.4375C116.792 36.6042 118.625 38.8542 120.5 41.1875C122.375 43.5208 124.188 45.9375 125.938 48.4375C127.729 50.8958 129.312 53.4583 130.688 56.125C132.104 58.7917 133.229 61.5625 134.062 64.4375C134.938 67.2708 135.375 70.2083 135.375 73.25ZM185.312 79.375C185.312 80.0833 185.021 80.7708 184.438 81.4375C183.896 82.1042 183.229 82.75 182.438 83.375C181.646 84 180.833 84.5833 180 85.125C179.167 85.625 178.479 86.0417 177.938 86.375C176.521 87.2917 175.104 88.1458 173.688 88.9375C172.312 89.7292 170.875 90.4167 169.375 91C167.917 91.5833 166.396 92.0417 164.812 92.375C163.271 92.7083 161.646 92.875 159.938 92.875L158.938 93C157.562 93 156.188 92.8542 154.812 92.5625C153.479 92.2292 152.229 91.75 151.062 91.125C149.896 90.4583 148.854 89.625 147.938 88.625C147.021 87.625 146.312 86.4167 145.812 85C145.438 83.875 145.146 82.5417 144.938 81C144.729 79.4583 144.562 77.8542 144.438 76.1875C144.354 74.5208 144.271 72.8958 144.188 71.3125C144.146 69.6875 144.104 68.25 144.062 67C143.438 54.25 142.938 41.5 142.562 28.75C142.479 27.2917 142.417 25.8333 142.375 24.375C142.333 22.9167 142.312 21.4583 142.312 20C142.312 17.5 142.458 15.375 142.75 13.625C143.042 11.875 143.625 10.4375 144.5 9.3125C145.375 8.1875 146.625 7.375 148.25 6.875C149.917 6.375 152.104 6.125 154.812 6.125C157.521 6.125 160.229 6.14583 162.938 6.1875C165.688 6.22917 168.438 6.25 171.188 6.25C172.021 6.25 172.854 6.22917 173.688 6.1875C174.521 6.10417 175.354 6.16667 176.188 6.375C176.688 6.45833 177.125 6.60417 177.5 6.8125C177.875 6.97917 178.062 7.375 178.062 8C178.062 9.5 177.562 10.625 176.562 11.375C175.562 12.0833 174.375 12.5625 173 12.8125C171.625 13.0625 170.188 13.1875 168.688 13.1875C167.229 13.1458 166.021 13.125 165.062 13.125H156.938C156.104 13.125 155.271 13.125 154.438 13.125C153.604 13.125 152.771 13.1667 151.938 13.25C151.688 13.875 151.521 14.5208 151.438 15.1875C151.354 15.8542 151.312 16.5417 151.312 17.25C151.312 21.7917 151.417 26.2708 151.625 30.6875C151.875 35.1042 152.104 39.5833 152.312 44.125C154.896 43.9167 157.458 43.6667 160 43.375C162.542 43.0833 165.104 42.75 167.688 42.375C168.062 42.375 168.396 42.3542 168.688 42.3125C169.021 42.2708 169.354 42.25 169.688 42.25C170.562 42.25 171.167 42.4792 171.5 42.9375C171.875 43.3958 172.062 44.0417 172.062 44.875C172.062 45.4583 172.021 46 171.938 46.5C171.896 47 171.771 47.5 171.562 48C171.271 48.8333 170.792 49.4375 170.125 49.8125C169.458 50.1875 168.708 50.4583 167.875 50.625C167.042 50.75 166.167 50.8125 165.25 50.8125C164.375 50.8125 163.604 50.8333 162.938 50.875C161.188 50.9583 159.458 51.0208 157.75 51.0625C156.083 51.1042 154.396 51.1667 152.688 51.25C152.729 52.125 152.792 53.4375 152.875 55.1875C152.958 56.9375 153.042 58.9167 153.125 61.125C153.25 63.2917 153.375 65.5417 153.5 67.875C153.667 70.2083 153.833 72.4167 154 74.5C154.167 76.5417 154.354 78.3333 154.562 79.875C154.771 81.4167 154.979 82.4583 155.188 83C155.646 83.875 156.167 84.4583 156.75 84.75C157.333 85 158.104 85.125 159.062 85.125C160.604 85.125 162.229 84.8333 163.938 84.25C165.646 83.625 167.312 82.8542 168.938 81.9375C170.562 80.9792 172.104 79.9375 173.562 78.8125C175.062 77.6875 176.354 76.5833 177.438 75.5C177.896 75.125 178.354 74.75 178.812 74.375C179.271 73.9583 179.812 73.75 180.438 73.75C181.062 73.75 181.667 73.9375 182.25 74.3125C182.833 74.6875 183.354 75.1667 183.812 75.75C184.271 76.2917 184.625 76.8958 184.875 77.5625C185.167 78.2292 185.312 78.8333 185.312 79.375ZM232.25 48.25C232.25 52.7083 231.854 57.1042 231.062 61.4375C230.271 65.7292 228.958 69.75 227.125 73.5C225.333 77.25 222.958 80.6667 220 83.75C217.042 86.7917 213.417 89.2917 209.125 91.25C208.042 91.75 206.854 92.2083 205.562 92.625C204.312 93.0417 203 93.3958 201.625 93.6875C200.292 93.9792 198.958 94.2083 197.625 94.375C196.292 94.5417 195.042 94.625 193.875 94.625C193.417 94.625 192.896 94.6042 192.312 94.5625C191.771 94.5625 191.25 94.4792 190.75 94.3125C190.25 94.1875 189.833 93.9583 189.5 93.625C189.167 93.2917 189 92.8333 189 92.25C189 91.75 189.104 91.2292 189.312 90.6875C189.521 90.1458 189.792 89.625 190.125 89.125C190.5 88.625 190.896 88.1875 191.312 87.8125C191.729 87.3958 192.167 87.0833 192.625 86.875C192.417 86.5417 192.208 85.6042 192 84.0625C191.833 82.5208 191.667 80.5625 191.5 78.1875C191.375 75.8125 191.25 73.1667 191.125 70.25C191 67.2917 190.875 64.25 190.75 61.125C190.667 58 190.583 54.8958 190.5 51.8125C190.458 48.6875 190.417 45.8125 190.375 43.1875C190.333 40.5625 190.292 38.2917 190.25 36.375C190.25 34.4167 190.25 33 190.25 32.125C190.25 28.2083 190.312 24.3542 190.438 20.5625C190.562 16.7708 190.625 12.9167 190.625 9C190.167 9 189.729 8.875 189.312 8.625C188.938 8.375 188.75 8 188.75 7.5C188.75 6.83333 188.917 6.22917 189.25 5.6875C189.583 5.10417 190 4.60417 190.5 4.1875C191.042 3.77083 191.625 3.45833 192.25 3.25C192.917 3 193.542 2.875 194.125 2.875C194.708 2.875 195.271 2.9375 195.812 3.0625C196.354 3.14583 196.917 3.25 197.5 3.375C203.042 4.70833 207.979 6.72917 212.312 9.4375C216.646 12.1458 220.271 15.4375 223.188 19.3125C226.146 23.1875 228.396 27.5625 229.938 32.4375C231.479 37.3125 232.25 42.5833 232.25 48.25ZM223 47.125C223 42.9583 222.5 39.0417 221.5 35.375C220.5 31.6667 219 28.2917 217 25.25C215.042 22.1667 212.562 19.4583 209.562 17.125C206.604 14.75 203.167 12.7917 199.25 11.25V11.5C199.25 22.25 199.417 32.9167 199.75 43.5C200.125 54.0417 200.667 64.6667 201.375 75.375C201.5 77 201.604 78.625 201.688 80.25C201.812 81.8333 202 83.4167 202.25 85C206.167 83.7083 209.458 81.7083 212.125 79C214.792 76.2917 216.917 73.2083 218.5 69.75C220.125 66.25 221.271 62.5417 221.938 58.625C222.646 54.6667 223 50.8333 223 47.125ZM65.8125 220C65.8125 220.583 65.5417 221.083 65 221.5C64.4583 221.917 63.8125 222.25 63.0625 222.5C62.3125 222.75 61.5417 222.938 60.75 223.062C60 223.188 59.3958 223.25 58.9375 223.25C58.8125 223.25 58.7083 223.271 58.625 223.312C58.5417 223.354 58.4375 223.333 58.3125 223.25C57.4792 223.083 56.75 222.792 56.125 222.375C55.5 222 54.9375 221.542 54.4375 221C53.9375 220.5 53.4583 219.938 53 219.312C52.5417 218.688 52.0625 218.042 51.5625 217.375C48.2292 213.167 45.0833 208.854 42.125 204.438C39.2083 199.979 36.5625 195.292 34.1875 190.375L33.4375 191.25V215.375C33.4375 215.833 33.4167 216.354 33.375 216.938C33.3333 217.479 33.2292 218 33.0625 218.5C32.8958 219 32.6458 219.417 32.3125 219.75C31.9792 220.083 31.5208 220.25 30.9375 220.25C29.6042 220.25 28.5 220.042 27.625 219.625C26.7917 219.208 26.125 218.646 25.625 217.938C25.1667 217.188 24.8542 216.312 24.6875 215.312C24.5208 214.312 24.4375 213.208 24.4375 212C24.4375 208.083 24.3958 204.188 24.3125 200.312C24.2292 196.438 24.1875 192.542 24.1875 188.625C24.1875 186.917 24.25 185.25 24.375 183.625C24.5 182 24.5625 180.333 24.5625 178.625C24.5625 172.667 24.3333 166.75 23.875 160.875C23.4167 154.958 22.9375 149.042 22.4375 143.125C22.3125 141.75 22.1667 140.375 22 139C21.875 137.625 21.8125 136.25 21.8125 134.875C21.8125 133.875 22.1458 133.208 22.8125 132.875C23.4792 132.542 24.1875 132.375 24.9375 132.375C27.2708 132.375 29.1042 132.854 30.4375 133.812C31.7708 134.771 32.4375 136.5 32.4375 139C32.4375 142.792 32.5625 146.5 32.8125 150.125C33.0208 154.667 33.1458 159.167 33.1875 163.625C33.2708 168.083 33.3542 172.583 33.4375 177.125C37.9375 171.5 41.4792 165.458 44.0625 159C46.6458 152.5 48.6042 145.708 49.9375 138.625C49.9792 138.208 50.0417 137.688 50.125 137.062C50.25 136.438 50.3958 135.833 50.5625 135.25C50.7708 134.625 51.0417 134.104 51.375 133.688C51.75 133.229 52.2292 133 52.8125 133C53.4792 133 54.1667 133.125 54.875 133.375C55.5833 133.583 56.2083 133.896 56.75 134.312C57.3333 134.729 57.7917 135.229 58.125 135.812C58.5 136.396 58.6875 137.042 58.6875 137.75C58.6875 139.583 58.4583 141.354 58 143.062C57.5833 144.771 57.1458 146.5 56.6875 148.25C55.8125 151.792 54.875 155.062 53.875 158.062C52.9167 161.062 51.7917 163.958 50.5 166.75C49.25 169.5 47.7917 172.229 46.125 174.938C44.4583 177.604 42.4792 180.375 40.1875 183.25L42.8125 188.5C45.0208 192.708 47.4792 196.812 50.1875 200.812C52.8958 204.771 55.8542 208.542 59.0625 212.125C60.1458 213.333 61.25 214.458 62.375 215.5C63.5417 216.5 64.5625 217.667 65.4375 219C65.6875 219.25 65.8125 219.583 65.8125 220ZM106.938 173C106.938 174.75 106.896 176.792 106.812 179.125C106.771 181.417 106.625 183.875 106.375 186.5C106.167 189.125 105.833 191.812 105.375 194.562C104.958 197.312 104.396 200 103.688 202.625C102.979 205.25 102.104 207.729 101.062 210.062C100.021 212.396 98.7708 214.438 97.3125 216.188C95.8542 217.938 94.1667 219.333 92.25 220.375C90.3333 221.375 88.1458 221.875 85.6875 221.875C83.2292 221.875 81 221.312 79 220.188C77 219.021 75.3125 217.5 73.9375 215.625C72.8125 214.125 71.8125 212.292 70.9375 210.125C70.1042 207.917 69.3542 205.521 68.6875 202.938C68.0625 200.354 67.5208 197.667 67.0625 194.875C66.6042 192.083 66.2292 189.333 65.9375 186.625C65.6875 183.917 65.5 181.354 65.375 178.938C65.25 176.479 65.1875 174.333 65.1875 172.5C65.1875 169.417 65.3125 166.188 65.5625 162.812C65.8542 159.438 66.375 156.104 67.125 152.812C67.875 149.479 68.8958 146.271 70.1875 143.188C71.4792 140.104 73.1458 137.333 75.1875 134.875C75.3958 134.625 75.6458 134.333 75.9375 134C76.2708 133.667 76.625 133.354 77 133.062C77.375 132.729 77.75 132.458 78.125 132.25C78.5417 132 78.9375 131.875 79.3125 131.875C79.6875 131.875 80.0417 131.979 80.375 132.188C80.75 132.396 81.0625 132.667 81.3125 133C82.1875 132.5 83.1042 132.146 84.0625 131.938C85.0625 131.729 86.0625 131.625 87.0625 131.625C90.1042 131.625 92.7083 132.354 94.875 133.812C97.0833 135.229 98.9167 137.104 100.375 139.438C101.833 141.771 103 144.417 103.875 147.375C104.75 150.333 105.417 153.354 105.875 156.438C106.333 159.521 106.625 162.5 106.75 165.375C106.875 168.25 106.938 170.792 106.938 173ZM97.1875 175.75C97.1875 174.667 97.1458 173.021 97.0625 170.812C97.0208 168.562 96.875 166.104 96.625 163.438C96.375 160.729 96.0208 157.958 95.5625 155.125C95.1458 152.292 94.5625 149.729 93.8125 147.438C93.0625 145.104 92.125 143.208 91 141.75C89.9167 140.25 88.6042 139.5 87.0625 139.5C86.4375 139.5 85.875 139.792 85.375 140.375C84.875 140.958 84.3958 141.708 83.9375 142.625C83.4792 143.542 83.0625 144.542 82.6875 145.625C82.3125 146.708 81.9375 147.75 81.5625 148.75C81.1875 149.75 80.8333 150.646 80.5 151.438C80.1667 152.229 79.8125 152.792 79.4375 153.125C79.3125 153.25 79.1042 153.333 78.8125 153.375C78.5625 153.375 78.3125 153.375 78.0625 153.375C77.3542 153.375 76.6875 153.25 76.0625 153C75.3542 155.833 74.8542 158.667 74.5625 161.5C74.3125 164.292 74.1875 167.125 74.1875 170C74.1875 170.875 74.2292 172.188 74.3125 173.938C74.3958 175.688 74.5208 177.688 74.6875 179.938C74.8542 182.188 75.0833 184.604 75.375 187.188C75.6667 189.771 76.0208 192.354 76.4375 194.938C76.8542 197.479 77.3333 199.938 77.875 202.312C78.4583 204.646 79.125 206.729 79.875 208.562C80.625 210.354 81.4583 211.792 82.375 212.875C83.2917 213.958 84.3125 214.5 85.4375 214.5C86.0625 214.5 86.625 214.333 87.125 214C87.625 213.625 88.1042 213.25 88.5625 212.875C89.8125 211.75 90.8958 210.271 91.8125 208.438C92.7292 206.604 93.5 204.583 94.125 202.375C94.75 200.167 95.2708 197.854 95.6875 195.438C96.1042 192.979 96.4167 190.562 96.625 188.188C96.8333 185.812 96.9792 183.562 97.0625 181.438C97.1458 179.271 97.1875 177.375 97.1875 175.75ZM155 215.875C155 216.625 154.917 217.375 154.75 218.125C154.625 218.833 154.375 219.479 154 220.062C153.667 220.604 153.208 221.042 152.625 221.375C152.042 221.708 151.292 221.875 150.375 221.875C149.25 221.875 148.333 221.625 147.625 221.125C146.958 220.667 146.333 220 145.75 219.125C144.958 218 144.25 216.708 143.625 215.25C143 213.75 142.438 212.229 141.938 210.688C141.438 209.104 140.958 207.542 140.5 206C140.083 204.417 139.667 202.958 139.25 201.625C137 194.625 134.896 187.646 132.938 180.688C131.021 173.729 128.958 166.75 126.75 159.75C126.542 168.792 126.375 177.792 126.25 186.75C126.167 195.708 126.125 204.708 126.125 213.75C126.125 214.208 126.104 214.729 126.062 215.312C126.021 215.896 125.917 216.458 125.75 217C125.583 217.5 125.312 217.938 124.938 218.312C124.604 218.688 124.125 218.875 123.5 218.875C121.375 218.875 119.75 218.312 118.625 217.188C117.542 216.021 117 214.375 117 212.25C117 200.542 117.021 188.938 117.062 177.438C117.104 165.938 117.125 154.375 117.125 142.75V133.875C117.125 132.917 117.292 132.125 117.625 131.5C118 130.833 118.792 130.5 120 130.5C120.833 130.5 121.688 130.625 122.562 130.875C123.438 131.083 124.208 131.417 124.875 131.875C125.583 132.333 126.146 132.938 126.562 133.688C127.021 134.396 127.25 135.25 127.25 136.25C129 139.583 130.458 143.021 131.625 146.562C132.833 150.104 134 153.667 135.125 157.25C136.75 162.458 138.354 167.667 139.938 172.875C141.521 178.083 143.125 183.333 144.75 188.625C144.5 180.75 144.229 172.896 143.938 165.062C143.688 157.188 143.167 149.333 142.375 141.5C142.167 139.792 141.917 138.125 141.625 136.5C141.375 134.875 141.25 133.208 141.25 131.5C141.25 130.625 141.542 130.042 142.125 129.75C142.708 129.417 143.375 129.25 144.125 129.25C145.417 129.25 146.521 129.354 147.438 129.562C148.354 129.771 149.125 130.125 149.75 130.625C150.375 131.125 150.854 131.812 151.188 132.688C151.521 133.521 151.792 134.583 152 135.875C152.25 138.125 152.438 140.396 152.562 142.688C152.729 144.938 152.875 147.167 153 149.375C153.375 154.958 153.646 160.5 153.812 166C153.979 171.5 154.125 177.042 154.25 182.625C154.375 188.167 154.521 193.708 154.688 199.25C154.896 204.75 155 210.292 155 215.875ZM213.188 176.125C213.188 177.458 212.938 178.5 212.438 179.25C211.979 179.958 211.354 180.5 210.562 180.875C209.771 181.25 208.875 181.479 207.875 181.562C206.917 181.646 205.938 181.708 204.938 181.75C207.188 184.083 208.979 186.771 210.312 189.812C211.646 192.854 212.312 196 212.312 199.25C212.312 202.458 211.771 205.604 210.688 208.688C209.604 211.729 208.062 214.438 206.062 216.812C204.062 219.188 201.667 221.104 198.875 222.562C196.083 224.021 192.979 224.75 189.562 224.75C186.854 224.75 184.417 224.229 182.25 223.188C180.083 222.146 178.146 220.729 176.438 218.938C174.729 217.104 173.229 215 171.938 212.625C170.646 210.208 169.542 207.646 168.625 204.938C167.708 202.188 166.938 199.354 166.312 196.438C165.729 193.521 165.25 190.667 164.875 187.875C164.542 185.083 164.292 182.438 164.125 179.938C164 177.396 163.938 175.125 163.938 173.125C163.938 170.792 164.042 168.292 164.25 165.625C164.5 162.958 164.896 160.271 165.438 157.562C165.979 154.854 166.708 152.208 167.625 149.625C168.542 147.042 169.708 144.667 171.125 142.5C172.542 140.292 174.208 138.375 176.125 136.75C178.083 135.083 180.354 133.833 182.938 133C183.896 132.667 184.854 132.417 185.812 132.25C186.771 132.083 187.729 132 188.688 132C192.854 132 196.312 133.125 199.062 135.375C201.854 137.625 203.938 140.667 205.312 144.5C205.562 145.083 205.771 145.688 205.938 146.312C206.104 146.896 206.188 147.5 206.188 148.125C206.188 148.875 205.917 149.354 205.375 149.562C204.833 149.771 204.271 149.875 203.688 149.875C202.188 149.875 200.979 149.604 200.062 149.062C199.146 148.521 198.375 147.854 197.75 147.062C197.125 146.271 196.562 145.396 196.062 144.438C195.604 143.479 195.083 142.604 194.5 141.812C193.917 141.021 193.188 140.354 192.312 139.812C191.438 139.271 190.271 139 188.812 139C186.729 139 184.896 139.583 183.312 140.75C181.729 141.917 180.354 143.458 179.188 145.375C178.021 147.25 177.042 149.396 176.25 151.812C175.458 154.188 174.833 156.583 174.375 159C173.917 161.375 173.583 163.667 173.375 165.875C173.167 168.083 173.062 169.958 173.062 171.5C173.062 173.125 173.167 175.375 173.375 178.25C173.583 181.125 173.917 184.25 174.375 187.625C174.875 191 175.521 194.438 176.312 197.938C177.146 201.396 178.167 204.542 179.375 207.375C180.625 210.208 182.083 212.521 183.75 214.312C185.458 216.104 187.438 217 189.688 217C191.646 217 193.417 216.438 195 215.312C196.583 214.146 197.917 212.708 199 211C200.125 209.25 200.979 207.396 201.562 205.438C202.146 203.438 202.438 201.583 202.438 199.875C202.438 198.25 202.208 196.646 201.75 195.062C201.292 193.438 200.646 191.917 199.812 190.5C198.979 189.042 197.979 187.708 196.812 186.5C195.646 185.25 194.354 184.208 192.938 183.375C192.438 183.042 191.875 182.75 191.25 182.5C190.667 182.208 190.062 181.958 189.438 181.75C189.104 181.708 188.458 181.667 187.5 181.625C186.542 181.542 185.562 181.438 184.562 181.312C183.562 181.188 182.667 181 181.875 180.75C181.083 180.458 180.688 180.042 180.688 179.5C180.688 178.75 180.812 177.979 181.062 177.188C181.312 176.396 181.667 175.688 182.125 175.062C182.625 174.438 183.188 173.917 183.812 173.5C184.479 173.083 185.229 172.875 186.062 172.875C187.271 172.875 188.562 173.062 189.938 173.438C191.354 173.771 192.604 174.167 193.688 174.625C195.771 174.5 197.833 174.375 199.875 174.25C201.917 174.083 203.938 173.875 205.938 173.625C206.646 173.542 207.333 173.438 208 173.312C208.708 173.188 209.438 173.125 210.188 173.125C211.188 173.125 211.938 173.354 212.438 173.812C212.938 174.271 213.188 175.042 213.188 176.125Z" fill="#0050EB"/>
</svg>
