<svg width="191" height="135" viewBox="0 0 191 135" fill="none" xmlns="http://www.w3.org/2000/svg">
<path d="M16.125 79.75C16.2083 82.125 16.2292 84.5417 16.1875 87C16.1458 89.4583 16 91.9167 15.75 94.375C15.6667 95.0833 15.4583 95.6042 15.125 95.9375C14.7917 96.3125 14.25 96.5 13.5 96.5C12.9167 96.5 12.2708 96.4375 11.5625 96.3125C10.8542 96.1875 10.1667 95.9792 9.5 95.6875C8.875 95.3958 8.33333 95 7.875 94.5C7.45833 94.0417 7.25 93.4583 7.25 92.75C7.25 92.25 7.27083 91.7708 7.3125 91.3125C7.35417 90.8958 7.41667 90.4583 7.5 90C7.75 88.25 7.95833 86.4792 8.125 84.6875C8.33333 82.8958 8.54167 81.125 8.75 79.375C5.91667 78.75 3.77083 77.4167 2.3125 75.375C0.854167 73.2917 0.125 70.8333 0.125 68C0.125 67.4583 0.145833 66.7292 0.1875 65.8125C0.270833 64.8542 0.416667 63.9167 0.625 63C0.833333 62.0833 1.14583 61.2917 1.5625 60.625C2.02083 59.9583 2.625 59.625 3.375 59.625C4 59.625 4.70833 59.8333 5.5 60.25C6.33333 60.625 7 61 7.5 61.375C8.125 61.75 8.5625 62.1875 8.8125 62.6875C9.10417 63.1458 9.25 63.75 9.25 64.5C9.25 65.3333 9.14583 66.1458 8.9375 66.9375C8.72917 67.7292 8.625 68.5417 8.625 69.375C8.625 70.375 8.91667 71.25 9.5 72C10.0833 72.75 10.9167 73.125 12 73.125C12.75 73.125 13.4583 72.9792 14.125 72.6875C14.8333 72.3542 15.4375 71.9167 15.9375 71.375C16.4375 70.8333 16.8333 70.2292 17.125 69.5625C17.4583 68.8542 17.625 68.125 17.625 67.375C17.625 66.7917 17.5417 66.2292 17.375 65.6875C17.25 65.1458 17.0833 64.625 16.875 64.125C15 59.7083 12.9583 55.3958 10.75 51.1875C8.58333 46.9375 6.33333 42.7083 4 38.5C3.125 36.7917 2.27083 35.0208 1.4375 33.1875C0.645833 31.3542 0.25 29.4583 0.25 27.5C0.25 26.1667 0.479167 24.9167 0.9375 23.75C1.39583 22.5417 2.02083 21.4583 2.8125 20.5C3.60417 19.5 4.52083 18.6458 5.5625 17.9375C6.64583 17.2292 7.79167 16.6667 9 16.25C8.75 14.4167 8.5 12.5625 8.25 10.6875C8 8.8125 7.875 7 7.875 5.25C7.875 4.16667 8.08333 3.45833 8.5 3.125C8.91667 2.79167 9.625 2.625 10.625 2.625C11 2.625 11.4792 2.6875 12.0625 2.8125C12.6875 2.89583 13.3125 3.04167 13.9375 3.25C14.5625 3.41667 15.1042 3.64583 15.5625 3.9375C16.0625 4.22917 16.375 4.58333 16.5 5C16.625 5.25 16.6875 5.5 16.6875 5.75C16.7292 6 16.75 6.25 16.75 6.5C16.75 7 16.7292 7.47917 16.6875 7.9375C16.6458 8.39583 16.5833 8.875 16.5 9.375V16C17.4583 16.2917 18.3958 16.7083 19.3125 17.25C20.2292 17.75 21.0208 18.375 21.6875 19.125C22.3958 19.8333 22.9583 20.6667 23.375 21.625C23.7917 22.5417 24 23.5417 24 24.625C24 25.9583 23.3333 26.625 22 26.625C20.6667 26.625 19.625 26.375 18.875 25.875C18.1667 25.3333 17.5208 24.75 16.9375 24.125C16.3958 23.5 15.8333 22.9375 15.25 22.4375C14.7083 21.8958 13.9583 21.625 13 21.625C12.25 21.625 11.5625 21.7917 10.9375 22.125C10.3125 22.4583 9.77083 22.9167 9.3125 23.5C8.85417 24.0417 8.5 24.6667 8.25 25.375C8 26.0417 7.875 26.7083 7.875 27.375C7.875 28.9583 8.27083 30.5 9.0625 32C9.85417 33.5 10.625 34.9167 11.375 36.25C12.9583 39.0833 14.4583 41.9167 15.875 44.75C17.3333 47.5417 18.7917 50.375 20.25 53.25C20.7917 54.3333 21.375 55.4583 22 56.625C22.6667 57.7917 23.2708 58.9792 23.8125 60.1875C24.3958 61.3542 24.8542 62.5625 25.1875 63.8125C25.5625 65.0208 25.75 66.25 25.75 67.5C25.75 68.9583 25.4792 70.3125 24.9375 71.5625C24.4375 72.8125 23.75 73.9375 22.875 74.9375C22 75.9375 20.9792 76.7917 19.8125 77.5C18.6458 78.2083 17.4167 78.75 16.125 79.125V79.75ZM59.0625 51.6875C59.0625 53.3958 58.9792 55.2917 58.8125 57.375C58.6458 59.4167 58.3958 61.5417 58.0625 63.75C57.7292 65.9583 57.2708 68.1875 56.6875 70.4375C56.1458 72.6458 55.4792 74.7708 54.6875 76.8125C53.8958 78.8542 52.9583 80.75 51.875 82.5C50.8333 84.2083 49.6458 85.6458 48.3125 86.8125C47.3542 87.6458 46.2708 88.3125 45.0625 88.8125C43.8958 89.3542 42.6875 89.625 41.4375 89.625C40.9792 89.625 40.5 89.5417 40 89.375C39.5 89.25 39.125 88.9167 38.875 88.375C37.9583 88.2917 37.0417 88.1042 36.125 87.8125C35.25 87.5625 34.5208 86.9792 33.9375 86.0625C33.8125 85.7708 33.7083 85.4167 33.625 85C33.5417 84.5833 33.4583 84.1458 33.375 83.6875C33.3333 83.4792 33.2917 83.2917 33.25 83.125C33.2083 82.9167 33.1667 82.7292 33.125 82.5625C31.9167 75.0625 31.0833 67.5625 30.625 60.0625C30.2083 52.5625 30 45 30 37.375C30 36.7083 30 35.5417 30 33.875C30 32.2083 30 30.3125 30 28.1875C30.0417 26.0625 30.0625 23.8333 30.0625 21.5C30.1042 19.1667 30.1458 16.9792 30.1875 14.9375C30.2292 12.8958 30.2917 11.1458 30.375 9.6875C30.4583 8.1875 30.5417 7.22917 30.625 6.8125C30.7917 6.22917 31.0208 5.75 31.3125 5.375C31.6042 5 32.1042 4.8125 32.8125 4.8125C34.7708 4.8125 36.1667 5.4375 37 6.6875C37.875 7.89583 38.3125 9.39583 38.3125 11.1875V27.25C38.3125 29.2083 38.3125 30.9792 38.3125 32.5625C38.3125 34.1042 38.3125 35.625 38.3125 37.125C38.3542 38.5833 38.3958 40.1042 38.4375 41.6875C38.4792 43.2292 38.5417 44.9583 38.625 46.875C39.125 45.75 39.7292 44.6458 40.4375 43.5625C41.1875 42.4792 42.0208 41.5 42.9375 40.625C43.8542 39.75 44.875 39.0417 46 38.5C47.125 37.9583 48.375 37.6875 49.75 37.6875C51.75 37.6875 53.3542 38.125 54.5625 39C55.8125 39.875 56.75 41 57.375 42.375C58.0417 43.7083 58.4792 45.2083 58.6875 46.875C58.9375 48.5417 59.0625 50.1458 59.0625 51.6875ZM50.4375 50.25C50.4375 49.4167 50.3958 48.5 50.3125 47.5C50.2708 46.5 50.0208 45.625 49.5625 44.875C49.1875 45.1667 48.8542 45.4792 48.5625 45.8125C48.3125 46.1458 48.0417 46.5208 47.75 46.9375L47.625 47.125V47.0625C46.4583 48.9792 45.5 51.2083 44.75 53.75C44.0417 56.2917 43.4583 58.9375 43 61.6875C42.5833 64.3958 42.2917 67.1042 42.125 69.8125C41.9583 72.4792 41.875 74.8958 41.875 77.0625C41.875 77.5208 41.875 78.2083 41.875 79.125C41.9167 80 42 80.7292 42.125 81.3125C43.75 79.9375 45.0833 77.9375 46.125 75.3125C47.2083 72.6458 48.0625 69.7917 48.6875 66.75C49.3542 63.6667 49.8125 60.6458 50.0625 57.6875C50.3125 54.7292 50.4375 52.25 50.4375 50.25ZM94.3125 87.9375C94.3125 88.3958 94.0625 88.8125 93.5625 89.1875C93.0625 89.5625 92.4792 89.875 91.8125 90.125C91.1875 90.375 90.5417 90.5625 89.875 90.6875C89.2083 90.8542 88.6875 90.9375 88.3125 90.9375C87.6042 90.9375 86.9583 90.7917 86.375 90.5C85.7917 90.25 85.25 89.9167 84.75 89.5C84.25 89.0833 83.7708 88.625 83.3125 88.125C82.8958 87.625 82.5 87.125 82.125 86.625C80.6667 84.8333 79.1667 82.8333 77.625 80.625C76.0833 78.4167 74.7083 76.3125 73.5 74.3125C73.5 74.4792 73.5208 74.6875 73.5625 74.9375C73.6042 75.1875 73.625 75.3958 73.625 75.5625C73.7083 76.4375 73.7708 77.3125 73.8125 78.1875C73.8958 79.0208 74 79.875 74.125 80.75C74.1667 81.25 74.2083 81.75 74.25 82.25C74.3333 82.7083 74.4167 83.2083 74.5 83.75C74.5833 84.4167 74.6667 85.0833 74.75 85.75C74.8333 86.4167 74.875 87.1042 74.875 87.8125C74.875 88.6875 74.625 89.2708 74.125 89.5625C73.625 89.8958 72.9583 90.0625 72.125 90.0625C71.5417 90.0625 70.9167 90.0208 70.25 89.9375C69.5833 89.8542 68.9375 89.6875 68.3125 89.4375C67.6875 89.1875 67.125 88.8542 66.625 88.4375C66.125 88.0208 65.75 87.4792 65.5 86.8125C65.375 86.3125 65.25 85.375 65.125 84C65 82.625 64.8958 81.1042 64.8125 79.4375C64.7292 77.7292 64.6458 76.0208 64.5625 74.3125C64.5208 72.6042 64.4792 71.1875 64.4375 70.0625C64.4375 69.8125 64.4167 69.6042 64.375 69.4375C64.375 69.2708 64.375 69.1042 64.375 68.9375C64.0417 68.6458 63.75 68.2917 63.5 67.875C63.25 67.4583 63.125 67.0625 63.125 66.6875C63.125 66.1458 63.2292 65.6667 63.4375 65.25C63.6458 64.8333 63.875 64.4375 64.125 64.0625C63.875 58.9375 63.75 53.8333 63.75 48.75C63.75 44.5417 63.7917 40.375 63.875 36.25C64 32.0833 64.1042 27.9167 64.1875 23.75L64.375 15.375C64.4167 14.9583 64.4375 14.4167 64.4375 13.75C64.4375 13.0833 64.4375 12.375 64.4375 11.625C64.4375 10.7083 64.4375 9.75 64.4375 8.75C64.4375 7.75 64.4583 6.8125 64.5 5.9375C64.5417 5.0625 64.5833 4.27083 64.625 3.5625C64.6667 2.85417 64.75 2.33333 64.875 2V2.0625C65.0417 1.4375 65.2708 0.979167 65.5625 0.6875C65.8542 0.395833 66.3542 0.25 67.0625 0.25C68.8125 0.25 70.1667 0.770833 71.125 1.8125C72.0833 2.85417 72.5625 4.25 72.5625 6C72.5625 8.79167 72.5417 11.5833 72.5 14.375C72.5 17.125 72.4792 19.8958 72.4375 22.6875C72.3958 25.4792 72.3542 28.2708 72.3125 31.0625C72.3125 33.8125 72.3125 36.5833 72.3125 39.375C72.3125 40.375 72.3125 41.3958 72.3125 42.4375C72.3542 43.4375 72.375 44.4583 72.375 45.5C72.4167 46.3333 72.4375 47.1875 72.4375 48.0625C72.4375 48.9375 72.4375 49.8542 72.4375 50.8125L79.1875 40.0625V40.125L79.75 39C79.875 38.7917 79.9375 38.6458 79.9375 38.5625C79.9792 38.4792 80.0208 38.375 80.0625 38.25C80.1458 38.0833 80.2917 37.8333 80.5 37.5C80.75 37.1667 81.1667 36.6667 81.75 36C81.9583 35.7917 82.2083 35.6042 82.5 35.4375C82.7917 35.2708 83.1667 35.1875 83.625 35.1875C84.0833 35.1875 84.5417 35.3333 85 35.625C85.5 35.875 85.9375 36.2083 86.3125 36.625C86.6875 37.0417 87 37.5 87.25 38C87.5 38.5 87.625 38.9583 87.625 39.375C87.625 39.7083 87.4375 40.2917 87.0625 41.125C86.6875 41.9167 86.1875 42.8958 85.5625 44.0625C84.9792 45.2292 84.3125 46.5 83.5625 47.875C82.8125 49.2083 82.0208 50.5625 81.1875 51.9375C80.3958 53.3125 79.625 54.6458 78.875 55.9375C78.125 57.2292 77.4583 58.375 76.875 59.375L75.25 62C76.2083 63.6667 77.3125 65.5208 78.5625 67.5625C79.8542 69.5625 81.2083 71.5833 82.625 73.625C84.0417 75.6667 85.4792 77.625 86.9375 79.5C88.4375 81.375 89.8958 83.0208 91.3125 84.4375L91.9375 84.9375C92.4375 85.3125 92.9583 85.7708 93.5 86.3125C94.0417 86.8125 94.3125 87.3542 94.3125 87.9375ZM120.438 61.375C120.438 65 120.125 68.625 119.5 72.25C118.917 75.8333 117.688 79.2292 115.812 82.4375C115.229 83.3958 114.562 84.3333 113.812 85.25C113.062 86.125 112.229 86.9167 111.312 87.625C110.438 88.375 109.458 88.9583 108.375 89.375C107.333 89.8333 106.229 90.0625 105.062 90.0625C103.229 90.0625 101.625 89.625 100.25 88.75C98.9167 87.9167 97.75 86.8125 96.75 85.4375C95.7917 84.0208 94.9792 82.4375 94.3125 80.6875C93.6875 78.8958 93.1875 77.0833 92.8125 75.25C92.4792 73.375 92.2292 71.5625 92.0625 69.8125C91.9375 68.0625 91.875 66.5208 91.875 65.1875C91.875 63.6875 91.9375 62.0417 92.0625 60.25C92.1875 58.4583 92.3958 56.625 92.6875 54.75C93.0208 52.875 93.4375 51.0208 93.9375 49.1875C94.4792 47.3542 95.1667 45.6458 96 44.0625C96.8333 42.4375 97.8333 41 99 39.75C100.167 38.4583 101.521 37.4375 103.062 36.6875V36.75C104.396 36.0417 105.729 35.6875 107.062 35.6875C107.896 35.6875 108.542 35.875 109 36.25C109.458 36.5833 109.667 37.1667 109.625 38C111.917 38.4167 113.771 39.5208 115.188 41.3125C116.604 43.1042 117.688 45.1875 118.438 47.5625C119.229 49.9375 119.75 52.375 120 54.875C120.292 57.375 120.438 59.5417 120.438 61.375ZM106.312 45.75C105.604 45.75 104.938 45.4792 104.312 44.9375C103.521 46.1458 102.854 47.5417 102.312 49.125C101.771 50.6667 101.333 52.2708 101 53.9375C100.708 55.5625 100.5 57.2083 100.375 58.875C100.25 60.5417 100.188 62.1042 100.188 63.5625C100.188 64.7708 100.25 66.3333 100.375 68.25C100.5 70.125 100.729 72.0208 101.062 73.9375C101.438 75.8542 101.938 77.6458 102.562 79.3125C103.229 80.9792 104.083 82.2083 105.125 83C106.417 82.25 107.479 81.0625 108.312 79.4375C109.188 77.7708 109.875 75.9583 110.375 74C110.875 72.0417 111.208 70.0625 111.375 68.0625C111.583 66.0625 111.688 64.3542 111.688 62.9375C111.688 61.8958 111.625 60.5417 111.5 58.875C111.375 57.2083 111.167 55.5208 110.875 53.8125C110.583 52.0625 110.167 50.4375 109.625 48.9375C109.125 47.4375 108.479 46.3125 107.688 45.5625C107.312 45.6875 106.854 45.75 106.312 45.75ZM135.312 86.6875C135.312 87.6458 135.021 88.2708 134.438 88.5625C133.896 88.8542 133.229 89 132.438 89C131.729 89 131.021 88.9375 130.312 88.8125C129.646 88.7292 129 88.5417 128.375 88.25C127.792 87.9583 127.271 87.5625 126.812 87.0625C126.396 86.5625 126.104 85.9167 125.938 85.125C125.354 82.625 125.021 80.1875 124.938 77.8125C124.854 75.3958 124.812 72.9167 124.812 70.375V62.6875C124.812 59.1875 124.958 55.5625 125.25 51.8125C125.542 48.0208 125.854 44.375 126.188 40.875C126.188 40.75 126.208 40.6042 126.25 40.4375C126.292 40.2708 126.312 40.1458 126.312 40.0625C126.354 39.6042 126.417 39.1042 126.5 38.5625C126.583 38.0208 126.708 37.5417 126.875 37.125C127.083 36.6667 127.354 36.2917 127.688 36C128.062 35.7083 128.542 35.5625 129.125 35.5625C129.792 35.5625 130.417 35.7083 131 36C131.625 36.25 132.167 36.6042 132.625 37.0625C133.083 37.4792 133.438 38 133.688 38.625C133.979 39.25 134.125 39.8958 134.125 40.5625C134.125 41.2708 134.104 42.0625 134.062 42.9375C134.021 43.7708 133.958 44.5625 133.875 45.3125C133.875 45.5208 133.854 45.75 133.812 46C133.812 46.25 133.792 46.4792 133.75 46.6875C134.333 45.5208 135 44.3125 135.75 43.0625C136.5 41.7708 137.354 40.6042 138.312 39.5625C139.312 38.4792 140.396 37.6042 141.562 36.9375C142.771 36.2708 144.104 35.9375 145.562 35.9375C146.771 35.9375 147.771 36.125 148.562 36.5C149.354 36.875 149.979 37.4167 150.438 38.125C150.938 38.7917 151.271 39.5833 151.438 40.5C151.646 41.4167 151.75 42.3958 151.75 43.4375C151.75 44.8542 151.708 46.2917 151.625 47.75C151.542 49.1667 151.458 50.5833 151.375 52C151.25 53.4583 151.146 54.8958 151.062 56.3125C150.979 57.7292 150.938 59.1667 150.938 60.625C150.938 62.375 150.979 64.1875 151.062 66.0625C151.146 67.8958 151.271 69.6667 151.438 71.375C151.604 73.0417 151.792 74.5625 152 75.9375C152.208 77.2708 152.417 78.3125 152.625 79.0625C152.792 79.6875 152.958 80.4167 153.125 81.25C153.333 82.0417 153.521 82.875 153.688 83.75C153.896 84.5833 154.062 85.3958 154.188 86.1875C154.312 86.9792 154.375 87.6875 154.375 88.3125C154.375 89.2292 154 89.8125 153.25 90.0625C152.542 90.3125 151.833 90.4375 151.125 90.4375C150.417 90.4375 149.604 90.375 148.688 90.25C147.812 90.1667 147.021 89.9375 146.312 89.5625C145.438 88.9375 144.854 88.0625 144.562 86.9375C144.312 85.8125 144.146 84.7083 144.062 83.625L143.875 81.9375C143.75 80.9375 143.583 79.625 143.375 78C143.167 76.375 142.958 74.5833 142.75 72.625C142.583 70.6667 142.438 68.6458 142.312 66.5625C142.188 64.4375 142.125 62.375 142.125 60.375C142.125 58.5833 142.188 56.8542 142.312 55.1875C142.479 53.5208 142.646 51.8333 142.812 50.125C142.896 49.25 142.958 48.5417 143 48C143.042 47.4583 143.104 46.75 143.188 45.875C142.354 47.2083 141.521 48.7708 140.688 50.5625C139.854 52.3542 139.062 54.2292 138.312 56.1875C137.562 58.1042 136.875 59.9792 136.25 61.8125C135.667 63.6458 135.208 65.25 134.875 66.625L134.5 68C134.292 68.6667 134.104 69.3333 133.938 70C133.812 70.6667 133.75 71.2917 133.75 71.875C133.75 72.625 133.792 73.5 133.875 74.5C133.958 75.4583 134.062 76.375 134.188 77.25C134.312 78.2917 134.458 79.3542 134.625 80.4375C134.625 80.5208 134.667 80.7917 134.75 81.25C134.833 81.7083 134.917 82.25 135 82.875C135.083 83.5 135.146 84.1667 135.188 84.875C135.271 85.5417 135.312 86.1458 135.312 86.6875ZM190.938 71.5C190.938 71.9167 190.812 72.4167 190.562 73C190.354 73.5417 190.062 74.125 189.688 74.75C189.354 75.3333 188.979 75.9375 188.562 76.5625C188.146 77.1875 187.75 77.75 187.375 78.25L186.438 79.5625L185.5 81.1875L184.688 82.6875C184.729 83.5208 184.792 84.4167 184.875 85.375C184.958 86.3333 185.042 87.25 185.125 88.125C185.583 92.4167 185.979 96.7917 186.312 101.25C186.688 105.708 186.875 110.083 186.875 114.375C186.875 116.667 186.688 118.979 186.312 121.312C185.938 123.688 185.229 125.812 184.188 127.688C183.188 129.604 181.792 131.167 180 132.375C178.208 133.583 175.917 134.188 173.125 134.188C171.208 134.188 169.583 133.833 168.25 133.125C166.917 132.417 165.833 131.458 165 130.25C164.208 129.083 163.625 127.708 163.25 126.125C162.875 124.542 162.688 122.896 162.688 121.188C162.688 117.812 163.083 114.396 163.875 110.938C164.667 107.479 165.688 104.062 166.938 100.688C168.229 97.3125 169.688 94 171.312 90.75C172.938 87.5417 174.583 84.4583 176.25 81.5C176.25 81.4167 176.25 81.3333 176.25 81.25C176.25 81.125 176.229 80.9375 176.188 80.6875C175.646 81.6875 175.021 82.7292 174.312 83.8125C173.646 84.8542 172.875 85.7917 172 86.625C171.167 87.4583 170.229 88.1458 169.188 88.6875C168.188 89.2292 167.062 89.5 165.812 89.5C164.062 89.5 162.604 89.0833 161.438 88.25C160.271 87.4167 159.333 86.3542 158.625 85.0625C157.958 83.7708 157.479 82.3542 157.188 80.8125C156.896 79.2708 156.75 77.8125 156.75 76.4375C156.75 74.8542 156.833 73.2917 157 71.75C157.208 70.2083 157.438 68.7083 157.688 67.25C158.104 64.9167 158.625 62.3958 159.25 59.6875C159.917 56.9375 160.729 54.2292 161.688 51.5625C162.646 48.8542 163.75 46.3125 165 43.9375C166.292 41.5625 167.792 39.5417 169.5 37.875L170 37.4375C170.542 36.8958 171.167 36.375 171.875 35.875C172.583 35.3333 173.312 35.0625 174.062 35.0625C174.521 35.0625 174.917 35.1875 175.25 35.4375C175.625 35.6875 175.938 36.0208 176.188 36.4375C176.438 36.8125 176.625 37.2292 176.75 37.6875C176.917 38.1458 177 38.5833 177 39C177 39.5 176.812 40.0417 176.438 40.625H176.562C179.104 40.625 180.812 41.7917 181.688 44.125C182.146 44.5417 182.479 45.0417 182.688 45.625C182.938 46.2083 183.062 46.8333 183.062 47.5C183.062 47.8333 183.042 48.2083 183 48.625C182.958 49 182.896 49.3542 182.812 49.6875C182.729 50.0625 182.667 50.4167 182.625 50.75C182.583 51.0833 182.562 51.3958 182.562 51.6875C182.562 52.6458 182.583 53.8333 182.625 55.25C182.667 56.6667 182.729 58.1458 182.812 59.6875C182.896 61.2292 182.979 62.75 183.062 64.25C183.188 65.7083 183.292 66.9792 183.375 68.0625C183.667 67.6875 184 67.3542 184.375 67.0625C184.792 66.7708 185.271 66.625 185.812 66.625C186.271 66.625 186.792 66.7917 187.375 67.125C188 67.4583 188.562 67.875 189.062 68.375C189.604 68.875 190.042 69.4167 190.375 70C190.75 70.5417 190.938 71.0417 190.938 71.5ZM173.75 45.75C173.75 45.5 173.75 45.2292 173.75 44.9375C173.792 44.6458 173.854 44.3333 173.938 44L173.5 44.5625C173.167 44.9375 172.854 45.2917 172.562 45.625C172.271 45.9583 172 46.3125 171.75 46.6875C170.667 48.2708 169.708 50.3333 168.875 52.875C168.083 55.375 167.417 58.0208 166.875 60.8125C166.333 63.5625 165.917 66.2708 165.625 68.9375C165.375 71.6042 165.25 73.8958 165.25 75.8125C165.25 76.7708 165.271 77.7292 165.312 78.6875C165.354 79.6458 165.562 80.5833 165.938 81.5C166.521 80.875 167 80.2083 167.375 79.5C167.75 78.75 168.104 77.9792 168.438 77.1875C169.354 75.1458 170.146 72.7708 170.812 70.0625C171.479 67.3542 172.021 64.5625 172.438 61.6875C172.854 58.8125 173.167 56 173.375 53.25C173.583 50.4583 173.708 47.9583 173.75 45.75ZM178.5 112.5C178.5 109.667 178.438 107 178.312 104.5C178.188 102.042 178 99.3958 177.75 96.5625C177 98.3542 176.229 100.271 175.438 102.312C174.688 104.396 174.021 106.479 173.438 108.562C172.854 110.688 172.375 112.792 172 114.875C171.625 116.958 171.438 118.938 171.438 120.812V121.25C171.438 122.208 171.5 123.229 171.625 124.312C171.75 125.438 172.146 126.354 172.812 127.062H173.5C174.333 127.062 175.021 126.771 175.562 126.188C176.146 125.646 176.625 124.938 177 124.062C177.375 123.188 177.667 122.208 177.875 121.125C178.083 120.042 178.229 118.958 178.312 117.875C178.396 116.792 178.438 115.771 178.438 114.812C178.479 113.854 178.5 113.083 178.5 112.5Z" fill="#0050EB"/>
</svg>
