<svg width="324" height="109" viewBox="0 0 324 109" fill="none" xmlns="http://www.w3.org/2000/svg">
<path d="M9.39658 83.3958C10.37 88.0892 10.1761 95.3019 12.4477 99.0881C13.8961 100.468 12.6379 101.794 14.3415 101.794C17.3832 101.794 20.4167 102.416 23.4317 102.335C27.1627 102.234 30.9635 100.711 34.6893 100.711C41.9986 100.711 49.3496 99.1106 56.6362 98.4267C74.5072 96.7495 92.0735 98.6046 109.957 99.509C119.696 100.001 129.465 100.389 139.206 100.741C152.618 101.227 166.06 101.685 179.48 101.794C193.438 101.907 207.219 98.5489 221.165 99.1181C231.345 99.5337 241.403 101.253 251.613 101.253C262.111 101.253 272.227 101.787 282.692 103.146C292.013 104.357 302.292 106.961 311.415 102.455C315.181 100.595 316.97 95.8456 316.97 90.3701C316.97 84.2251 317.3 78.1823 317.349 72.0324C317.415 63.6368 318.835 55.1883 319.432 46.8406C320.002 38.8571 320.001 31.0612 320 23.077L320 22.0696C320 17.1068 318.394 11.524 316.296 7.63987C315.066 5.36075 310.377 5.47542 308.427 5.47542C298.583 5.47542 288.862 3.13527 279.01 4.9343C273.778 5.88961 268.786 7.33314 263.481 6.97851C257.843 6.60169 252.228 6.55764 246.584 6.55764C235.638 6.55764 224.575 7.35265 213.653 6.67789C199.723 5.8173 185.807 6.35776 171.884 5.23492C164.99 4.67895 158.08 5.47542 151.179 5.47542C144.48 5.47542 138.116 6.64998 131.462 7.39938C118.126 8.90146 104.72 8.7221 91.3558 8.7221C79.3486 8.7221 67.1232 9.65006 55.1633 7.63987C49.581 6.70163 43.8987 7.09876 38.2875 7.09876C34.2951 7.09876 30.4538 6.36036 26.4828 6.01653C21.1322 5.55325 15.2658 2.90315 9.88055 4.51344C7.91755 5.10042 7.08512 7.52158 6.19818 9.77427C4.76102 13.4244 4.67841 17.8066 4.19917 21.8291C3.78881 25.2734 4.14462 29.4402 4.115 32.952C4.07682 37.4798 4.115 42.0118 4.115 46.5399C4.115 54.1026 4.53832 60.4277 6.09296 67.7035C7.20965 72.9296 8.31002 78.1567 9.39658 83.3958Z" fill="black" stroke="black" stroke-width="7" stroke-linecap="round"/>
<path d="M18.1233 75.5348C19.0474 79.7635 18.8634 86.2622 21.02 89.6734C22.3951 90.9164 21.2006 92.1111 22.8179 92.1111C25.7056 92.1111 28.5855 92.6719 31.4478 92.5987C34.9899 92.508 38.5983 91.1361 42.1354 91.1361C49.0746 91.1361 56.0534 89.6937 62.9711 89.0776C79.9372 87.5664 96.6141 89.2378 113.592 90.0526C122.838 90.4964 132.113 90.8457 141.36 91.1631C154.093 91.6002 166.855 92.013 179.595 92.1111C192.846 92.2132 205.93 89.1876 219.169 89.7005C228.834 90.0749 238.383 91.6236 248.075 91.6236C258.042 91.6236 267.645 92.1053 277.581 93.33C286.43 94.4207 296.188 96.7664 304.849 92.707C308.425 91.0313 310.123 86.752 310.123 81.8186C310.123 76.282 310.437 70.8375 310.483 65.2965C310.545 57.7322 311.894 50.1202 312.46 42.5989C313.002 35.406 313.001 28.3819 313 21.1883L313 20.2805C313 15.8091 311.475 10.779 309.484 7.27949C308.316 5.22602 303.864 5.32934 302.013 5.32934C292.667 5.32934 283.438 3.22088 274.085 4.8418C269.119 5.70252 264.38 7.00313 259.342 6.68361C253.99 6.3441 248.659 6.30441 243.301 6.30441C232.91 6.30441 222.406 7.0207 212.037 6.41275C198.813 5.63737 185.601 6.12432 172.384 5.11265C165.839 4.61173 159.279 5.32934 152.727 5.32934C146.367 5.32934 140.325 6.38761 134.008 7.06281C121.347 8.41617 108.621 8.25457 95.9327 8.25457C84.5335 8.25457 72.9271 9.09064 61.5727 7.27949C56.2731 6.43414 50.8785 6.79195 45.5514 6.79195C41.7612 6.79195 38.1144 6.12666 34.3444 5.81687C29.2647 5.39946 23.6954 3.01175 18.5828 4.4626C16.7192 4.99146 15.9289 7.17291 15.0869 9.20256C13.7225 12.4913 13.6441 16.4396 13.1891 20.0638C12.7995 23.1671 13.1373 26.9214 13.1092 30.0854C13.0729 34.165 13.1092 38.2483 13.1092 42.3281C13.1092 49.142 13.5111 54.8408 14.987 61.3962C16.0471 66.1049 17.0918 70.8145 18.1233 75.5348Z" fill="#204FED" stroke="black" stroke-width="7" stroke-linecap="round"/>
<path d="M84.968 66.8115C84.968 67.0803 84.8451 67.3106 84.5993 67.5026C84.3535 67.6946 84.0604 67.8482 83.72 67.9634C83.3796 68.0785 83.0298 68.1649 82.6705 68.2225C82.3302 68.2801 82.056 68.3089 81.848 68.3089C81.7913 68.3089 81.744 68.3185 81.7062 68.3377C81.6684 68.3569 81.6211 68.3473 81.5644 68.3089C81.1862 68.2321 80.8553 68.0977 80.5716 67.9058C80.288 67.733 80.0327 67.5218 79.8058 67.2723C79.5789 67.0419 79.3615 66.7827 79.1535 66.4948C78.9455 66.2068 78.728 65.9093 78.5011 65.6021C76.9884 63.6632 75.5607 61.6763 74.2182 59.6414C72.8945 57.5873 71.6938 55.4276 70.616 53.1623L70.2756 53.5654V64.6806C70.2756 64.8918 70.2662 65.1318 70.2473 65.4005C70.2284 65.6501 70.1811 65.8901 70.1055 66.1204C70.0298 66.3508 69.9164 66.5428 69.7651 66.6963C69.6138 66.8499 69.4058 66.9267 69.1411 66.9267C68.536 66.9267 68.0349 66.8307 67.6378 66.6387C67.2596 66.4468 66.9571 66.1876 66.7302 65.8613C66.5222 65.5157 66.3804 65.1126 66.3047 64.6518C66.2291 64.1911 66.1913 63.6824 66.1913 63.1257C66.1913 61.3211 66.1724 59.5262 66.1345 57.7408C66.0967 55.9555 66.0778 54.1606 66.0778 52.356C66.0778 51.5689 66.1062 50.801 66.1629 50.0524C66.2196 49.3037 66.248 48.5358 66.248 47.7487C66.248 45.0035 66.144 42.2775 65.936 39.5707C65.728 36.8447 65.5105 34.1187 65.2836 31.3927C65.2269 30.7592 65.1607 30.1257 65.0851 29.4921C65.0284 28.8586 65 28.2251 65 27.5916C65 27.1309 65.1513 26.8237 65.4538 26.6702C65.7564 26.5166 66.0778 26.4398 66.4182 26.4398C67.4771 26.4398 68.3091 26.6606 68.9142 27.1021C69.5193 27.5436 69.8218 28.3403 69.8218 29.4921C69.8218 31.2391 69.8785 32.9476 69.992 34.6178C70.0865 36.7103 70.1433 38.7836 70.1622 40.8377C70.2 42.8918 70.2378 44.9651 70.2756 47.0576C72.3178 44.466 73.9251 41.6824 75.0975 38.7068C76.2698 35.712 77.1585 32.5829 77.7636 29.3194C77.7825 29.1274 77.8109 28.8874 77.8487 28.5995C77.9055 28.3115 77.9716 28.0332 78.0473 27.7644C78.1418 27.4764 78.2647 27.2365 78.416 27.0445C78.5862 26.8333 78.8036 26.7277 79.0684 26.7277C79.3709 26.7277 79.6829 26.7853 80.0044 26.9005C80.3258 26.9965 80.6095 27.1405 80.8553 27.3325C81.12 27.5244 81.328 27.7548 81.4793 28.0236C81.6495 28.2923 81.7345 28.5899 81.7345 28.9162C81.7345 29.7609 81.6305 30.5768 81.4225 31.3639C81.2335 32.151 81.0349 32.9476 80.8269 33.7539C80.4298 35.3857 80.0044 36.8927 79.5505 38.2749C79.1156 39.6571 78.6051 40.9913 78.0189 42.2775C77.4516 43.5445 76.7898 44.8019 76.0335 46.0497C75.2771 47.2784 74.3789 48.555 73.3389 49.8796L74.5302 52.2984C75.5324 54.2373 76.648 56.1283 77.8771 57.9712C79.1062 59.7949 80.4487 61.5323 81.9047 63.1832C82.3964 63.74 82.8975 64.2583 83.408 64.7382C83.9375 65.199 84.4007 65.7365 84.7978 66.3508C84.9113 66.466 84.968 66.6195 84.968 66.8115Z" fill="white"/>
<path d="M103.631 45.1571C103.631 45.9634 103.612 46.904 103.575 47.9791C103.556 49.0349 103.489 50.1675 103.376 51.377C103.281 52.5864 103.13 53.8246 102.922 55.0916C102.733 56.3586 102.478 57.5969 102.156 58.8063C101.835 60.0157 101.438 61.1579 100.965 62.233C100.492 63.308 99.9251 64.2487 99.2633 65.055C98.6015 65.8613 97.8356 66.5044 96.9658 66.9843C96.096 67.445 95.1033 67.6754 93.9876 67.6754C92.872 67.6754 91.8604 67.4162 90.9527 66.8979C90.0451 66.3604 89.2793 65.6597 88.6553 64.7958C88.1447 64.1047 87.6909 63.26 87.2938 62.2618C86.9156 61.2443 86.5753 60.1405 86.2727 58.9503C85.9891 57.76 85.7433 56.5218 85.5353 55.2356C85.3273 53.9494 85.1571 52.6824 85.0247 51.4346C84.9113 50.1867 84.8262 49.0061 84.7695 47.8927C84.7127 46.76 84.6844 45.7714 84.6844 44.9267C84.6844 43.5061 84.7411 42.0183 84.8545 40.4634C84.9869 38.9084 85.2233 37.3726 85.5636 35.856C85.904 34.3202 86.3673 32.8421 86.9535 31.4215C87.5396 30.0009 88.296 28.7243 89.2225 27.5916C89.3171 27.4764 89.4305 27.3421 89.5629 27.1885C89.7142 27.0349 89.8749 26.8909 90.0451 26.7565C90.2153 26.603 90.3855 26.4782 90.5556 26.3822C90.7447 26.267 90.9244 26.2094 91.0945 26.2094C91.2647 26.2094 91.4255 26.2574 91.5767 26.3534C91.7469 26.4494 91.8887 26.5742 92.0022 26.7277C92.3993 26.4974 92.8153 26.3342 93.2502 26.2382C93.704 26.1422 94.1578 26.0942 94.6116 26.0942C95.992 26.0942 97.1738 26.4302 98.1571 27.1021C99.1593 27.7548 99.9913 28.6187 100.653 29.6937C101.315 30.7688 101.844 31.9878 102.241 33.3508C102.639 34.7138 102.941 36.1056 103.149 37.5262C103.357 38.9468 103.489 40.3194 103.546 41.644C103.603 42.9686 103.631 44.1396 103.631 45.1571ZM99.2065 46.4241C99.2065 45.925 99.1876 45.1667 99.1498 44.1492C99.1309 43.1126 99.0647 41.9799 98.9513 40.7513C98.8378 39.5035 98.6771 38.2269 98.4691 36.9215C98.28 35.6161 98.0153 34.4354 97.6749 33.3796C97.3345 32.3045 96.9091 31.4311 96.3985 30.7592C95.9069 30.0681 95.3113 29.7225 94.6116 29.7225C94.328 29.7225 94.0727 29.8569 93.8458 30.1257C93.6189 30.3944 93.4015 30.74 93.1935 31.1623C92.9855 31.5846 92.7964 32.0454 92.6262 32.5445C92.456 33.0436 92.2858 33.5236 92.1156 33.9843C91.9455 34.445 91.7847 34.8578 91.6335 35.2225C91.4822 35.5873 91.3215 35.8464 91.1513 36C91.0945 36.0576 91 36.096 90.8676 36.1152C90.7542 36.1152 90.6407 36.1152 90.5273 36.1152C90.2058 36.1152 89.9033 36.0576 89.6196 35.9424C89.2982 37.2478 89.0713 38.5532 88.9389 39.8586C88.8255 41.1449 88.7687 42.4503 88.7687 43.7749C88.7687 44.178 88.7876 44.7827 88.8255 45.589C88.8633 46.3953 88.92 47.3168 88.9956 48.3534C89.0713 49.3901 89.1753 50.5035 89.3076 51.6937C89.44 52.8839 89.6007 54.0742 89.7898 55.2644C89.9789 56.4354 90.1964 57.5681 90.4422 58.6623C90.7069 59.7373 91.0095 60.6972 91.3498 61.5419C91.6902 62.3674 92.0684 63.0297 92.4844 63.5288C92.9004 64.0279 93.3636 64.2775 93.8742 64.2775C94.1578 64.2775 94.4131 64.2007 94.64 64.0471C94.8669 63.8743 95.0844 63.7016 95.2924 63.5288C95.8596 63.0105 96.3513 62.329 96.7673 61.4843C97.1833 60.6396 97.5331 59.7086 97.8167 58.6911C98.1004 57.6736 98.3367 56.6082 98.5258 55.4948C98.7149 54.3621 98.8567 53.2487 98.9513 52.1545C99.0458 51.0602 99.112 50.0236 99.1498 49.0445C99.1876 48.0462 99.2065 47.1728 99.2065 46.4241Z" fill="white"/>
<path d="M125.443 64.911C125.443 65.2565 125.405 65.6021 125.329 65.9476C125.273 66.274 125.159 66.5716 124.989 66.8403C124.838 67.0899 124.63 67.2914 124.365 67.445C124.1 67.5986 123.76 67.6754 123.344 67.6754C122.833 67.6754 122.417 67.5602 122.096 67.3298C121.793 67.1187 121.51 66.8115 121.245 66.4084C120.886 65.8901 120.564 65.2949 120.281 64.623C119.997 63.9319 119.742 63.2312 119.515 62.5209C119.288 61.7914 119.071 61.0716 118.863 60.3613C118.673 59.6318 118.484 58.9599 118.295 58.3456C117.274 55.1204 116.319 51.9049 115.431 48.699C114.561 45.493 113.625 42.2775 112.623 39.0524C112.528 43.2182 112.452 47.3647 112.396 51.4921C112.358 55.6195 112.339 59.7661 112.339 63.9319C112.339 64.1431 112.329 64.3831 112.311 64.6518C112.292 64.9206 112.244 65.1798 112.169 65.4293C112.093 65.6597 111.97 65.8613 111.8 66.034C111.649 66.2068 111.431 66.2932 111.148 66.2932C110.183 66.2932 109.446 66.034 108.935 65.5157C108.444 64.9782 108.198 64.2199 108.198 63.2408C108.198 57.8464 108.207 52.5 108.226 47.2016C108.245 41.9031 108.255 36.5759 108.255 31.2199V27.1309C108.255 26.6894 108.33 26.3246 108.481 26.0366C108.652 25.7295 109.011 25.5759 109.559 25.5759C109.937 25.5759 110.325 25.6335 110.722 25.7487C111.119 25.8447 111.469 25.9983 111.772 26.2094C112.093 26.4206 112.348 26.699 112.537 27.0445C112.745 27.3709 112.849 27.7644 112.849 28.2251C113.644 29.7609 114.305 31.3447 114.835 32.9764C115.383 34.6082 115.913 36.2496 116.423 37.9005C117.161 40.3002 117.889 42.6998 118.607 45.0995C119.326 47.4991 120.054 49.918 120.791 52.356C120.678 48.7277 120.555 45.1091 120.423 41.5C120.309 37.8717 120.073 34.2531 119.713 30.644C119.619 29.8569 119.505 29.089 119.373 28.3403C119.26 27.5916 119.203 26.8237 119.203 26.0366C119.203 25.6335 119.335 25.3647 119.6 25.2304C119.865 25.0768 120.167 25 120.508 25C121.094 25 121.595 25.048 122.011 25.144C122.427 25.24 122.777 25.4031 123.06 25.6335C123.344 25.8639 123.561 26.1806 123.713 26.5838C123.864 26.9677 123.987 27.4572 124.081 28.0524C124.195 29.089 124.28 30.1353 124.337 31.1911C124.412 32.2277 124.479 33.2548 124.535 34.2723C124.705 36.8447 124.828 39.3979 124.904 41.9319C124.98 44.466 125.046 47.0192 125.103 49.5916C125.159 52.1449 125.225 54.6981 125.301 57.2513C125.396 59.7853 125.443 62.3386 125.443 64.911Z" fill="white"/>
<path d="M151.849 46.5969C151.849 47.2112 151.736 47.6911 151.509 48.0366C151.301 48.363 151.017 48.6126 150.658 48.7853C150.299 48.9581 149.892 49.0637 149.439 49.1021C149.004 49.1405 148.559 49.1693 148.105 49.1885C149.127 50.2635 149.94 51.5017 150.545 52.9031C151.15 54.3045 151.452 55.7539 151.452 57.2513C151.452 58.7295 151.207 60.1789 150.715 61.5995C150.223 63.0009 149.524 64.2487 148.616 65.3429C147.708 66.4372 146.621 67.3202 145.354 67.9921C144.087 68.6641 142.679 69 141.128 69C139.899 69 138.793 68.76 137.809 68.2801C136.826 67.8002 135.947 67.1475 135.172 66.322C134.396 65.4773 133.716 64.5079 133.129 63.4136C132.543 62.3002 132.042 61.1195 131.626 59.8717C131.21 58.6047 130.86 57.2993 130.577 55.9555C130.312 54.6117 130.095 53.2967 129.924 52.0105C129.773 50.7243 129.66 49.5052 129.584 48.3534C129.527 47.1824 129.499 46.1361 129.499 45.2147C129.499 44.1396 129.546 42.9878 129.641 41.7592C129.754 40.5305 129.934 39.2923 130.18 38.0445C130.425 36.7967 130.756 35.5777 131.172 34.3874C131.588 33.1972 132.118 32.103 132.761 31.1047C133.404 30.0873 134.16 29.2042 135.03 28.4555C135.919 27.6876 136.949 27.1117 138.121 26.7277C138.556 26.5742 138.991 26.459 139.426 26.3822C139.861 26.3054 140.296 26.267 140.731 26.267C142.622 26.267 144.191 26.7853 145.439 27.822C146.706 28.8586 147.652 30.26 148.276 32.0262C148.389 32.2949 148.484 32.5733 148.559 32.8613C148.635 33.13 148.673 33.4084 148.673 33.6963C148.673 34.0419 148.55 34.2627 148.304 34.3586C148.058 34.4546 147.803 34.5026 147.538 34.5026C146.857 34.5026 146.309 34.3778 145.893 34.1283C145.477 33.8787 145.127 33.5716 144.844 33.2068C144.56 32.8421 144.305 32.4389 144.078 31.9974C143.87 31.5558 143.633 31.1527 143.369 30.788C143.104 30.4232 142.773 30.1161 142.376 29.8665C141.979 29.6169 141.449 29.4921 140.788 29.4921C139.842 29.4921 139.01 29.7609 138.292 30.2984C137.573 30.836 136.949 31.5462 136.42 32.4293C135.89 33.2932 135.446 34.2819 135.087 35.3953C134.727 36.4895 134.444 37.5934 134.236 38.7068C134.028 39.801 133.876 40.8569 133.782 41.8743C133.687 42.8918 133.64 43.7557 133.64 44.466C133.64 45.2147 133.687 46.2513 133.782 47.5759C133.876 48.9005 134.028 50.3403 134.236 51.8953C134.463 53.4503 134.756 55.034 135.115 56.6466C135.493 58.24 135.956 59.6894 136.505 60.9948C137.072 62.3002 137.734 63.3656 138.49 64.1911C139.265 65.0166 140.164 65.4293 141.185 65.4293C142.073 65.4293 142.877 65.1702 143.596 64.6518C144.314 64.1143 144.919 63.452 145.411 62.6649C145.921 61.8586 146.309 61.0044 146.574 60.1021C146.839 59.1806 146.971 58.3264 146.971 57.5393C146.971 56.7906 146.867 56.0515 146.659 55.322C146.451 54.5733 146.158 53.8726 145.78 53.2199C145.401 52.548 144.948 51.9337 144.418 51.377C143.889 50.801 143.303 50.3211 142.66 49.9372C142.433 49.7836 142.177 49.6492 141.894 49.534C141.629 49.3997 141.355 49.2845 141.071 49.1885C140.92 49.1693 140.627 49.1501 140.192 49.1309C139.757 49.0925 139.313 49.0445 138.859 48.9869C138.405 48.9293 137.999 48.8429 137.639 48.7277C137.28 48.5934 137.1 48.4014 137.1 48.1518C137.1 47.8063 137.157 47.4511 137.271 47.0864C137.384 46.7216 137.545 46.3953 137.753 46.1073C137.98 45.8194 138.235 45.5794 138.519 45.3874C138.821 45.1955 139.161 45.0995 139.54 45.0995C140.088 45.0995 140.674 45.1859 141.298 45.3586C141.941 45.5122 142.508 45.6946 143 45.9058C143.945 45.8482 144.881 45.7906 145.808 45.733C146.735 45.6562 147.652 45.5602 148.559 45.445C148.881 45.4066 149.193 45.3586 149.495 45.301C149.817 45.2435 150.148 45.2147 150.488 45.2147C150.942 45.2147 151.282 45.3202 151.509 45.5314C151.736 45.7426 151.849 46.0977 151.849 46.5969Z" fill="white"/>
<path d="M179.816 63.1257C179.816 63.6824 179.674 64.2103 179.391 64.7094C179.107 65.1894 178.719 65.5445 178.228 65.7749C178.076 65.8517 177.708 65.9284 177.121 66.0052C176.535 66.0628 175.902 66.1204 175.221 66.178C174.54 66.2356 173.888 66.2932 173.264 66.3508C172.659 66.4084 172.233 66.4468 171.988 66.466C171.931 66.7923 171.78 67.0227 171.534 67.1571C171.288 67.2723 171.023 67.3298 170.74 67.3298C170.418 67.3298 170.049 67.2819 169.633 67.1859C169.217 67.0899 168.849 66.9843 168.527 66.8691C167.676 66.9843 166.816 67.1091 165.946 67.2435C165.076 67.3778 164.197 67.445 163.308 67.445C162.628 67.445 162.287 67.1187 162.287 66.466C162.287 65.8133 162.467 65.3141 162.826 64.9686C163.185 64.623 163.62 64.3639 164.131 64.1911C164.641 64.0183 165.19 63.9031 165.776 63.8456C166.362 63.788 166.882 63.7208 167.336 63.644C167.241 58.192 167.137 52.7784 167.024 47.4031C166.929 42.0279 166.882 36.6143 166.882 31.1623C166.107 31.2199 165.351 31.2775 164.613 31.3351C163.876 31.3735 163.138 31.3927 162.401 31.3927C162.249 31.3927 162.089 31.3927 161.919 31.3927C161.748 31.3735 161.588 31.3447 161.436 31.3063C161.304 31.2487 161.191 31.1719 161.096 31.0759C160.983 30.9607 160.926 30.7976 160.926 30.5864C160.926 30.2216 161.001 29.9049 161.153 29.6361C161.304 29.3482 161.503 29.1178 161.748 28.945C162.013 28.7531 162.297 28.5995 162.599 28.4843C162.902 28.3691 163.214 28.2827 163.535 28.2251C164.348 28.0716 165.171 27.9468 166.003 27.8508C166.854 27.7356 167.695 27.63 168.527 27.534C169.378 27.4188 170.22 27.3037 171.052 27.1885C171.903 27.0733 172.744 26.9197 173.576 26.7277C174.37 26.555 175.164 26.3342 175.959 26.0654C176.753 25.7775 177.566 25.6335 178.398 25.6335C178.852 25.6335 179.154 25.8063 179.305 26.1518C179.457 26.4782 179.532 26.8429 179.532 27.2461C179.532 27.5724 179.495 27.8892 179.419 28.1963C179.362 28.4843 179.23 28.7627 179.022 29.0314C178.908 29.185 178.653 29.3386 178.256 29.4921C177.878 29.6265 177.415 29.7513 176.866 29.8665C176.337 29.9817 175.76 30.0969 175.136 30.212C174.531 30.308 173.935 30.404 173.349 30.5C172.782 30.5768 172.262 30.644 171.789 30.7016C171.316 30.7592 170.967 30.7976 170.74 30.8168C170.948 33.4852 171.089 36.1536 171.165 38.822C171.26 41.4904 171.335 44.1588 171.392 46.8272C171.449 49.4956 171.505 52.164 171.562 54.8325C171.619 57.5009 171.723 60.1693 171.874 62.8377C172.952 62.6649 174.039 62.5017 175.136 62.3482C176.233 62.1754 177.339 62.089 178.455 62.089C178.776 62.089 179.079 62.1658 179.362 62.3194C179.665 62.4538 179.816 62.7225 179.816 63.1257Z" fill="white"/>
<path d="M200.039 64.911C200.039 65.2565 200.001 65.6021 199.926 65.9476C199.869 66.274 199.756 66.5716 199.585 66.8403C199.434 67.0899 199.226 67.2914 198.961 67.445C198.697 67.5986 198.356 67.6754 197.94 67.6754C197.43 67.6754 197.014 67.5602 196.692 67.3298C196.39 67.1187 196.106 66.8115 195.841 66.4084C195.482 65.8901 195.161 65.2949 194.877 64.623C194.593 63.9319 194.338 63.2312 194.111 62.5209C193.884 61.7914 193.667 61.0716 193.459 60.3613C193.27 59.6318 193.081 58.9599 192.892 58.3456C191.871 55.1204 190.916 51.9049 190.027 48.699C189.157 45.493 188.221 42.2775 187.219 39.0524C187.124 43.2182 187.049 47.3647 186.992 51.4921C186.954 55.6195 186.935 59.7661 186.935 63.9319C186.935 64.1431 186.926 64.3831 186.907 64.6518C186.888 64.9206 186.841 65.1798 186.765 65.4293C186.689 65.6597 186.567 65.8613 186.396 66.034C186.245 66.2068 186.028 66.2932 185.744 66.2932C184.78 66.2932 184.042 66.034 183.532 65.5157C183.04 64.9782 182.794 64.2199 182.794 63.2408C182.794 57.8464 182.804 52.5 182.823 47.2016C182.841 41.9031 182.851 36.5759 182.851 31.2199V27.1309C182.851 26.6894 182.927 26.3246 183.078 26.0366C183.248 25.7295 183.607 25.5759 184.156 25.5759C184.534 25.5759 184.921 25.6335 185.319 25.7487C185.716 25.8447 186.065 25.9983 186.368 26.2094C186.689 26.4206 186.945 26.699 187.134 27.0445C187.342 27.3709 187.446 27.7644 187.446 28.2251C188.24 29.7609 188.902 31.3447 189.431 32.9764C189.98 34.6082 190.509 36.2496 191.02 37.9005C191.757 40.3002 192.485 42.6998 193.204 45.0995C193.922 47.4991 194.65 49.918 195.388 52.356C195.274 48.7277 195.151 45.1091 195.019 41.5C194.905 37.8717 194.669 34.2531 194.31 30.644C194.215 29.8569 194.102 29.089 193.969 28.3403C193.856 27.5916 193.799 26.8237 193.799 26.0366C193.799 25.6335 193.932 25.3647 194.196 25.2304C194.461 25.0768 194.764 25 195.104 25C195.69 25 196.191 25.048 196.607 25.144C197.023 25.24 197.373 25.4031 197.657 25.6335C197.94 25.8639 198.158 26.1806 198.309 26.5838C198.46 26.9677 198.583 27.4572 198.678 28.0524C198.791 29.089 198.876 30.1353 198.933 31.1911C199.009 32.2277 199.075 33.2548 199.132 34.2723C199.302 36.8447 199.425 39.3979 199.5 41.9319C199.576 44.466 199.642 47.0192 199.699 49.5916C199.756 52.1449 199.822 54.6981 199.897 57.2513C199.992 59.7853 200.039 62.3386 200.039 64.911Z" fill="white"/>
<path d="M236.345 67.3298C236.345 67.7138 236.25 68.0209 236.061 68.2513C235.891 68.4817 235.588 68.5969 235.153 68.5969C234.927 68.5969 234.69 68.5681 234.444 68.5105C234.199 68.4721 233.962 68.4049 233.735 68.3089C233.263 68.1745 232.884 68.0497 232.601 67.9346C232.336 67.8194 232.128 67.6658 231.977 67.4738C231.844 67.301 231.759 67.0707 231.721 66.7827C231.684 66.4948 231.655 66.1012 231.636 65.6021C231.485 61.6667 231.315 57.7696 231.126 53.911C230.956 50.0332 230.672 46.1361 230.275 42.2199C230.01 43.5445 229.755 44.8691 229.509 46.1937C229.263 47.5183 229.008 48.8621 228.743 50.2251C228.479 51.6457 228.223 53.0951 227.977 54.5733C227.751 56.0515 227.382 57.4817 226.871 58.8639C226.663 59.4206 226.408 59.8621 226.105 60.1885C225.803 60.4956 225.34 60.6492 224.716 60.6492C224.262 60.6492 223.893 60.5724 223.609 60.4188C223.326 60.2461 223.052 59.9965 222.787 59.6702C222.541 59.4014 222.276 58.8831 221.993 58.1152C221.709 57.3473 221.407 56.4546 221.085 55.4372C220.783 54.4005 220.48 53.2967 220.177 52.1257C219.875 50.9546 219.591 49.8316 219.327 48.7565C219.062 47.6623 218.825 46.664 218.617 45.7618C218.409 44.8595 218.249 44.178 218.135 43.7173V47.6335C218.135 50.1867 218.183 52.7304 218.277 55.2644C218.372 57.7984 218.532 60.3229 218.759 62.8377C218.816 63.3944 218.892 63.9511 218.986 64.5079C219.1 65.0646 219.156 65.6213 219.156 66.178C219.156 66.6771 218.986 67.0035 218.646 67.1571C218.324 67.3106 217.965 67.3874 217.568 67.3874C216.49 67.3874 215.658 67.1571 215.072 66.6963C214.505 66.2164 214.221 65.4101 214.221 64.2775C214.221 61.9546 214.164 59.651 214.051 57.3665C213.937 55.082 213.881 52.7784 213.881 50.4555C213.881 50.1291 213.881 49.5628 213.881 48.7565C213.9 47.9503 213.919 47 213.937 45.9058C213.956 44.7923 213.975 43.5925 213.994 42.3063C214.032 41.0009 214.07 39.6859 214.108 38.3613C214.145 37.0366 214.183 35.7504 214.221 34.5026C214.259 33.2356 214.297 32.103 214.335 31.1047C214.372 30.1065 214.41 29.281 214.448 28.6283C214.505 27.9564 214.561 27.5532 214.618 27.4188C214.713 27.1501 214.817 26.9773 214.93 26.9005C215.063 26.8237 215.261 26.7853 215.526 26.7853C216.244 26.7853 216.84 26.9485 217.313 27.2749C217.804 27.582 218.135 28.1099 218.305 28.8586C218.57 29.2618 218.873 30.0009 219.213 31.0759C219.553 32.1318 219.913 33.37 220.291 34.7906C220.669 36.2112 221.047 37.7469 221.425 39.3979C221.823 41.0297 222.191 42.6038 222.532 44.1204C222.891 45.637 223.212 47.0288 223.496 48.2958C223.799 49.5628 224.035 50.5323 224.205 51.2042C224.753 47.9023 225.311 44.6195 225.879 41.356C226.446 38.0925 226.985 34.8098 227.495 31.5079C227.59 30.9511 227.684 30.404 227.779 29.8665C227.892 29.329 227.949 28.7819 227.949 28.2251C227.949 27.8796 227.902 27.5628 227.807 27.2749C227.713 26.9677 227.665 26.651 227.665 26.3246C227.665 25.9215 227.788 25.6815 228.034 25.6047C228.299 25.5087 228.592 25.4607 228.913 25.4607C229.216 25.4607 229.575 25.5087 229.991 25.6047C230.407 25.7007 230.804 25.8447 231.183 26.0366C231.58 26.2286 231.911 26.4686 232.175 26.7565C232.459 27.0445 232.601 27.3805 232.601 27.7644C232.601 28.4363 232.544 29.1466 232.431 29.8953C233.111 33.1396 233.679 36.3935 234.132 39.6571C234.586 42.9014 234.927 46.1745 235.153 49.4764C235.38 52.3176 235.56 55.1396 235.692 57.9424C235.844 60.7452 236.023 63.548 236.231 66.3508C236.269 66.5236 236.297 66.6867 236.316 66.8403C236.335 66.9939 236.345 67.1571 236.345 67.3298Z" fill="white"/>
<path d="M260 60.9948C260 61.3211 259.868 61.6379 259.603 61.945C259.357 62.2522 259.055 62.5497 258.695 62.8377C258.336 63.1257 257.967 63.3944 257.589 63.644C257.211 63.8743 256.899 64.0663 256.653 64.2199C256.01 64.6422 255.367 65.0358 254.724 65.4005C254.1 65.7653 253.448 66.082 252.767 66.3508C252.105 66.6195 251.415 66.8307 250.697 66.9843C249.997 67.1379 249.26 67.2147 248.484 67.2147L248.031 67.2723C247.407 67.2723 246.783 67.2051 246.159 67.0707C245.553 66.9171 244.986 66.6963 244.457 66.4084C243.927 66.1012 243.455 65.7173 243.039 65.2565C242.623 64.7958 242.301 64.2391 242.074 63.5864C241.904 63.0681 241.772 62.4538 241.677 61.7435C241.583 61.0332 241.507 60.2941 241.45 59.5262C241.412 58.7583 241.375 58.0096 241.337 57.2801C241.318 56.5314 241.299 55.8691 241.28 55.2932C240.996 49.4188 240.769 43.5445 240.599 37.6702C240.561 36.9983 240.533 36.3264 240.514 35.6545C240.495 34.9825 240.486 34.3106 240.486 33.6387C240.486 32.4869 240.552 31.5079 240.684 30.7016C240.817 29.8953 241.081 29.233 241.479 28.7147C241.876 28.1963 242.443 27.822 243.18 27.5916C243.937 27.3613 244.929 27.2461 246.159 27.2461C247.388 27.2461 248.617 27.2557 249.846 27.2749C251.094 27.2941 252.342 27.3037 253.59 27.3037C253.968 27.3037 254.346 27.2941 254.724 27.2749C255.103 27.2365 255.481 27.2653 255.859 27.3613C256.086 27.3997 256.284 27.4668 256.455 27.5628C256.625 27.6396 256.71 27.822 256.71 28.1099C256.71 28.801 256.483 29.3194 256.029 29.6649C255.575 29.9913 255.036 30.212 254.412 30.3272C253.788 30.4424 253.136 30.5 252.455 30.5C251.793 30.4808 251.245 30.4712 250.81 30.4712H247.123C246.745 30.4712 246.367 30.4712 245.988 30.4712C245.61 30.4712 245.232 30.4904 244.854 30.5288C244.74 30.8168 244.665 31.1143 244.627 31.4215C244.589 31.7286 244.57 32.0454 244.57 32.3717C244.57 34.4642 244.617 36.5279 244.712 38.5628C244.825 40.5977 244.929 42.6614 245.024 44.7539C246.196 44.6579 247.359 44.5428 248.513 44.4084C249.666 44.274 250.829 44.1204 252.001 43.9476C252.172 43.9476 252.323 43.938 252.455 43.9188C252.607 43.8997 252.758 43.8901 252.909 43.8901C253.306 43.8901 253.58 43.9956 253.732 44.2068C253.902 44.418 253.987 44.7155 253.987 45.0995C253.987 45.3682 253.968 45.6178 253.93 45.8482C253.911 46.0785 253.855 46.3089 253.76 46.5393C253.628 46.9232 253.41 47.2016 253.108 47.3743C252.805 47.5471 252.465 47.6719 252.087 47.7487C251.708 47.8063 251.311 47.8351 250.895 47.8351C250.498 47.8351 250.148 47.8447 249.846 47.8639C249.052 47.9023 248.267 47.9311 247.492 47.9503C246.735 47.9695 245.969 47.9983 245.194 48.0366C245.213 48.4398 245.241 49.0445 245.279 49.8508C245.317 50.6571 245.355 51.5689 245.393 52.5864C245.449 53.5846 245.506 54.6213 245.563 55.6963C245.639 56.7714 245.714 57.7888 245.79 58.7487C245.865 59.6894 245.951 60.5148 246.045 61.2251C246.14 61.9354 246.234 62.4154 246.329 62.6649C246.537 63.0681 246.773 63.3368 247.038 63.4712C247.303 63.5864 247.652 63.644 248.087 63.644C248.787 63.644 249.524 63.5096 250.3 63.2408C251.075 62.9529 251.831 62.5977 252.569 62.1754C253.306 61.7339 254.006 61.2539 254.668 60.7356C255.348 60.2173 255.935 59.7086 256.426 59.2094C256.634 59.0367 256.842 58.8639 257.05 58.6911C257.258 58.4991 257.504 58.4031 257.788 58.4031C258.071 58.4031 258.345 58.4895 258.61 58.6623C258.875 58.8351 259.111 59.0558 259.319 59.3246C259.527 59.5742 259.688 59.8525 259.801 60.1597C259.934 60.4668 260 60.7452 260 60.9948Z" fill="white"/>
</svg>
