<svg width="324" height="109" viewBox="0 0 324 109" fill="none" xmlns="http://www.w3.org/2000/svg">
<path d="M9.39658 83.3958C10.37 88.0892 10.1761 95.3019 12.4477 99.0881C13.8961 100.468 12.6379 101.794 14.3415 101.794C17.3832 101.794 20.4167 102.416 23.4317 102.335C27.1627 102.234 30.9635 100.711 34.6893 100.711C41.9986 100.711 49.3496 99.1106 56.6362 98.4267C74.5072 96.7495 92.0735 98.6046 109.957 99.509C119.696 100.001 129.465 100.389 139.206 100.741C152.618 101.227 166.06 101.685 179.48 101.794C193.438 101.907 207.219 98.5489 221.165 99.1181C231.345 99.5337 241.403 101.253 251.613 101.253C262.111 101.253 272.227 101.787 282.692 103.146C292.013 104.357 302.292 106.961 311.415 102.455C315.181 100.595 316.97 95.8456 316.97 90.3701C316.97 84.2251 317.3 78.1823 317.349 72.0324C317.415 63.6368 318.835 55.1883 319.432 46.8406C320.002 38.8571 320.001 31.0612 320 23.077L320 22.0696C320 17.1068 318.394 11.524 316.296 7.63987C315.066 5.36075 310.377 5.47542 308.427 5.47542C298.583 5.47542 288.862 3.13527 279.01 4.9343C273.778 5.88961 268.786 7.33314 263.481 6.97851C257.843 6.60169 252.228 6.55764 246.584 6.55764C235.638 6.55764 224.575 7.35265 213.653 6.67789C199.723 5.8173 185.807 6.35776 171.884 5.23492C164.99 4.67895 158.08 5.47542 151.179 5.47542C144.48 5.47542 138.116 6.64998 131.462 7.39938C118.126 8.90146 104.72 8.7221 91.3558 8.7221C79.3486 8.7221 67.1232 9.65006 55.1633 7.63987C49.581 6.70163 43.8987 7.09876 38.2875 7.09876C34.2951 7.09876 30.4538 6.36036 26.4828 6.01653C21.1322 5.55325 15.2658 2.90315 9.88055 4.51344C7.91755 5.10042 7.08512 7.52158 6.19818 9.77427C4.76102 13.4244 4.67841 17.8066 4.19917 21.8291C3.78881 25.2734 4.14462 29.4402 4.115 32.952C4.07682 37.4798 4.115 42.0118 4.115 46.5399C4.115 54.1026 4.53832 60.4277 6.09296 67.7035C7.20965 72.9296 8.31002 78.1567 9.39658 83.3958Z" fill="black" stroke="black" stroke-width="7" stroke-linecap="round"/>
<path d="M18.1233 75.5348C19.0474 79.7635 18.8634 86.2622 21.02 89.6734C22.3951 90.9164 21.2006 92.1111 22.8179 92.1111C25.7056 92.1111 28.5855 92.6719 31.4478 92.5987C34.9899 92.508 38.5983 91.1361 42.1354 91.1361C49.0746 91.1361 56.0534 89.6937 62.9711 89.0776C79.9372 87.5664 96.6141 89.2378 113.592 90.0526C122.838 90.4964 132.113 90.8457 141.36 91.1631C154.093 91.6002 166.855 92.013 179.595 92.1111C192.846 92.2132 205.93 89.1876 219.169 89.7005C228.834 90.0749 238.383 91.6236 248.075 91.6236C258.042 91.6236 267.645 92.1053 277.581 93.33C286.43 94.4207 296.188 96.7664 304.849 92.707C308.425 91.0313 310.123 86.752 310.123 81.8186C310.123 76.282 310.437 70.8375 310.483 65.2965C310.545 57.7322 311.894 50.1202 312.46 42.5989C313.002 35.406 313.001 28.3819 313 21.1883L313 20.2805C313 15.8091 311.475 10.779 309.484 7.27949C308.316 5.22602 303.864 5.32934 302.013 5.32934C292.667 5.32934 283.438 3.22088 274.085 4.8418C269.119 5.70252 264.38 7.00313 259.342 6.68361C253.99 6.3441 248.659 6.30441 243.301 6.30441C232.91 6.30441 222.406 7.0207 212.037 6.41275C198.813 5.63737 185.601 6.12432 172.384 5.11265C165.839 4.61173 159.279 5.32934 152.727 5.32934C146.367 5.32934 140.325 6.38761 134.008 7.06281C121.347 8.41617 108.621 8.25457 95.9327 8.25457C84.5335 8.25457 72.9271 9.09064 61.5727 7.27949C56.2731 6.43414 50.8785 6.79195 45.5514 6.79195C41.7612 6.79195 38.1144 6.12666 34.3444 5.81687C29.2647 5.39946 23.6954 3.01175 18.5828 4.4626C16.7192 4.99146 15.9289 7.17291 15.0869 9.20256C13.7225 12.4913 13.6441 16.4396 13.1891 20.0638C12.7995 23.1671 13.1373 26.9214 13.1092 30.0854C13.0729 34.165 13.1092 38.2483 13.1092 42.3281C13.1092 49.142 13.5111 54.8408 14.987 61.3962C16.0471 66.1049 17.0918 70.8145 18.1233 75.5348Z" fill="#204FED" stroke="black" stroke-width="7" stroke-linecap="round"/>
<path d="M73.5 58.75C73.5 61.1875 73.1042 63.3125 72.3125 65.125C71.5417 66.9375 70.4583 68.4479 69.0625 69.6562C67.6667 70.8646 66 71.7604 64.0625 72.3438C62.1458 72.9479 60.0417 73.25 57.75 73.25H56.6875C56.4792 73.25 56.1667 73.2396 55.75 73.2188C55.3333 73.2188 54.9062 73.1771 54.4688 73.0938C54.0521 73.0312 53.6771 72.9167 53.3438 72.75C53.0312 72.5833 52.875 72.3542 52.875 72.0625C52.875 71.7292 52.9479 71.3958 53.0938 71.0625C53.2604 70.75 53.4688 70.4688 53.7188 70.2188C53.9688 69.9479 54.25 69.7292 54.5625 69.5625C54.875 69.375 55.1875 69.25 55.5 69.1875C55.3333 68.9792 55.2083 68.6979 55.125 68.3438C55.0417 67.9896 54.9688 67.6146 54.9062 67.2188C54.8438 66.8229 54.7917 66.4375 54.75 66.0625C54.7292 65.6667 54.7083 65.3333 54.6875 65.0625C54.3125 61.8333 53.9896 58.6146 53.7188 55.4062C53.4479 52.1979 53.3125 48.9583 53.3125 45.6875C53.3125 43.6042 53.3438 41.5417 53.4062 39.5C53.4688 37.4583 53.5208 35.3958 53.5625 33.3125C53.6042 32.4583 53.6146 31.6146 53.5938 30.7812C53.5938 29.9479 53.625 29.1042 53.6875 28.25C53.5625 28.2917 53.4271 28.3125 53.2812 28.3125C53.1354 28.3125 52.9792 28.3125 52.8125 28.3125C52.5 28.3125 52.1875 28.2604 51.875 28.1562C51.5833 28.0312 51.4375 27.75 51.4375 27.3125C51.4375 26.7708 51.5521 26.3333 51.7812 26C52.0104 25.6667 52.3021 25.4167 52.6562 25.25C53.0104 25.0625 53.4062 24.9479 53.8438 24.9062C54.3021 24.8438 54.75 24.8125 55.1875 24.8125C57.1875 24.8125 59.125 25.0625 61 25.5625C62.875 26.0625 64.5312 26.8333 65.9688 27.875C67.4062 28.9167 68.5625 30.25 69.4375 31.875C70.3125 33.4792 70.75 35.3958 70.75 37.625C70.75 39.4583 70.4167 41.2083 69.75 42.875C69.0833 44.5417 68.1042 46.0208 66.8125 47.3125C67.9792 47.8125 68.9792 48.4688 69.8125 49.2812C70.6667 50.0729 71.3646 50.9688 71.9062 51.9688C72.4479 52.9688 72.8438 54.0521 73.0938 55.2188C73.3646 56.3646 73.5 57.5417 73.5 58.75ZM66 37.1875C66 35.9375 65.8021 34.8333 65.4062 33.875C65.0104 32.8958 64.4583 32.0521 63.75 31.3438C63.0417 30.6146 62.1979 30.0312 61.2188 29.5938C60.2396 29.1354 59.1667 28.7917 58 28.5625C58.0417 28.6667 58.0625 28.7604 58.0625 28.8438C58.0625 28.9271 58.0625 29 58.0625 29.0625C58.0625 31.0417 58.0417 33 58 34.9375C57.9583 36.8542 57.9375 38.7917 57.9375 40.75V44C57.9375 44.4167 57.9479 44.8438 57.9688 45.2812C57.9896 45.6979 58 46.125 58 46.5625C58.5417 46.3333 59.0833 46.2188 59.625 46.2188C60.1875 46.1979 60.75 46.1875 61.3125 46.1875C62.875 45.2083 64.0417 43.9271 64.8125 42.3438C65.6042 40.7396 66 39.0208 66 37.1875ZM68.8125 58.6875C68.8125 57.6875 68.7188 56.7188 68.5312 55.7812C68.3646 54.8438 68.0625 53.9896 67.625 53.2188C67.1875 52.4271 66.6146 51.75 65.9062 51.1875C65.1979 50.625 64.3125 50.2083 63.25 49.9375C61.6667 50.8333 59.9792 51.4375 58.1875 51.75C58.3542 54.1042 58.5521 56.4583 58.7812 58.8125C59.0312 61.1458 59.375 63.4792 59.8125 65.8125C59.9167 66.3542 60.0312 66.8958 60.1562 67.4375C60.3021 67.9583 60.3958 68.5 60.4375 69.0625C61.8333 68.875 63.0521 68.4896 64.0938 67.9062C65.1562 67.3021 66.0312 66.5521 66.7188 65.6562C67.4271 64.7396 67.9479 63.6875 68.2812 62.5C68.6354 61.3125 68.8125 60.0417 68.8125 58.6875ZM100.779 51.8125C100.779 52.9375 100.737 54.1979 100.654 55.5938C100.591 56.9896 100.445 58.4167 100.216 59.875C99.9871 61.3333 99.6537 62.7604 99.2162 64.1562C98.7787 65.5312 98.185 66.7604 97.435 67.8438C96.685 68.9271 95.7579 69.8021 94.6537 70.4688C93.5704 71.1146 92.2579 71.4375 90.7162 71.4375C89.8621 71.4375 89.0287 71.3125 88.2162 71.0625C87.4037 70.8125 86.6537 70.4375 85.9662 69.9375C84.8829 69.1458 83.9662 68.0104 83.2162 66.5312C82.4871 65.0312 81.8829 63.3542 81.4037 61.5C80.9246 59.625 80.56 57.6458 80.31 55.5625C80.06 53.4583 79.8725 51.3958 79.7475 49.375C79.6433 47.3542 79.5808 45.4479 79.56 43.6562C79.5392 41.8646 79.5287 40.3333 79.5287 39.0625C79.5287 38.7292 79.5287 38.25 79.5287 37.625C79.5287 37 79.5287 36.3125 79.5287 35.5625C79.5496 34.7917 79.5704 34 79.5912 33.1875C79.6121 32.375 79.6433 31.6042 79.685 30.875C79.7267 30.125 79.7787 29.4688 79.8412 28.9062C79.9037 28.3438 79.9871 27.9375 80.0912 27.6875C80.1954 27.4375 80.31 27.2604 80.435 27.1562C80.5808 27.0521 80.7996 27 81.0912 27C82.0287 27 82.7683 27.2917 83.31 27.875C83.8725 28.4375 84.1537 29.1875 84.1537 30.125C84.1537 31.5 84.1225 32.875 84.06 34.25C83.9975 35.625 83.9662 37 83.9662 38.375C83.9662 38.9792 83.9662 39.8646 83.9662 41.0312C83.9871 42.1979 84.0287 43.5312 84.0912 45.0312C84.1537 46.5104 84.2475 48.1042 84.3725 49.8125C84.4975 51.5208 84.6642 53.2188 84.8725 54.9062C85.1017 56.5729 85.3829 58.1875 85.7162 59.75C86.0496 61.2917 86.4454 62.6562 86.9037 63.8438C87.3829 65.0312 87.935 65.9792 88.56 66.6875C89.185 67.3958 89.9037 67.75 90.7162 67.75C91.4871 67.75 92.1537 67.4479 92.7162 66.8438C93.2996 66.2396 93.7787 65.4688 94.1537 64.5312C94.5496 63.5729 94.8621 62.5104 95.0912 61.3438C95.3412 60.1771 95.5287 59.0312 95.6537 57.9062C95.7787 56.7604 95.8621 55.7083 95.9037 54.75C95.9454 53.7708 95.9662 53 95.9662 52.4375C95.9662 51.2917 95.935 50.0208 95.8725 48.625C95.8308 47.2083 95.7579 45.7396 95.6537 44.2188C95.5704 42.6979 95.4454 41.1458 95.2787 39.5625C95.1121 37.9792 94.9142 36.4479 94.685 34.9688C94.4558 33.4688 94.185 32.0417 93.8725 30.6875C93.5808 29.3333 93.2371 28.125 92.8412 27.0625C92.7787 26.875 92.6746 26.6354 92.5287 26.3438C92.4037 26.0521 92.3412 25.8125 92.3412 25.625C92.3412 25.2917 92.4142 25.0417 92.56 24.875C92.7267 24.7083 92.9246 24.5938 93.1537 24.5312C93.3829 24.4479 93.6329 24.4062 93.9037 24.4062C94.1746 24.3854 94.4246 24.375 94.6537 24.375C95.1537 24.375 95.56 24.3958 95.8725 24.4375C96.2058 24.4792 96.5912 24.625 97.0287 24.875C97.3204 25.0417 97.5912 25.5 97.8412 26.25C98.1121 27 98.3621 27.9479 98.5912 29.0938C98.8204 30.2396 99.0287 31.5417 99.2162 33C99.4246 34.4375 99.6121 35.9271 99.7787 37.4688C99.9454 38.9896 100.091 40.5104 100.216 42.0312C100.341 43.5521 100.445 44.9583 100.529 46.25C100.612 47.5417 100.675 48.6771 100.716 49.6562C100.758 50.6354 100.779 51.3542 100.779 51.8125ZM123.589 26.1875C123.589 26.625 123.453 27.4271 123.182 28.5938C122.912 29.7396 122.568 31.0833 122.151 32.625C121.735 34.1458 121.266 35.7708 120.745 37.5C120.224 39.2083 119.714 40.8542 119.214 42.4375C118.714 44 118.255 45.3958 117.839 46.625C117.422 47.8542 117.11 48.75 116.901 49.3125C117.13 51.1667 117.287 53.0104 117.37 54.8438C117.453 56.6771 117.547 58.5208 117.651 60.375C117.755 61.9375 117.849 63.5104 117.932 65.0938C118.037 66.6771 118.089 68.25 118.089 69.8125C118.089 70.2917 117.964 70.6667 117.714 70.9375C117.485 71.1875 117.13 71.3125 116.651 71.3125C116.464 71.3125 116.214 71.2812 115.901 71.2188C115.589 71.1771 115.266 71.1042 114.932 71C114.62 70.9167 114.318 70.8125 114.026 70.6875C113.755 70.5625 113.568 70.4375 113.464 70.3125C113.214 70.0208 113.057 69.75 112.995 69.5C112.932 69.2292 112.901 68.9167 112.901 68.5625C112.901 65.3333 112.87 62.125 112.807 58.9375C112.745 55.75 112.714 52.5417 112.714 49.3125L112.464 49.0625C112.339 48.875 112.193 48.6146 112.026 48.2812C111.88 47.9271 111.724 47.5625 111.557 47.1875C111.412 46.8125 111.276 46.4479 111.151 46.0938C111.026 45.7396 110.922 45.4583 110.839 45.25C110.151 43.3333 109.505 41.4167 108.901 39.5C108.297 37.5833 107.651 35.6667 106.964 33.75C106.86 33.4167 106.693 32.9688 106.464 32.4062C106.235 31.8229 106.005 31.2188 105.776 30.5938C105.547 29.9688 105.349 29.3854 105.182 28.8438C104.995 28.2812 104.901 27.8542 104.901 27.5625C104.901 27.3333 104.964 27.1458 105.089 27C105.214 26.8542 105.37 26.75 105.557 26.6875C105.745 26.6042 105.943 26.5521 106.151 26.5312C106.36 26.5104 106.547 26.5 106.714 26.5C107.255 26.5 107.755 26.5312 108.214 26.5938C108.693 26.6354 109.172 26.8125 109.651 27.125C109.776 27.2083 109.974 27.5938 110.245 28.2812C110.516 28.9688 110.818 29.8229 111.151 30.8438C111.485 31.8646 111.828 32.9688 112.182 34.1562C112.557 35.3438 112.901 36.4896 113.214 37.5938C113.526 38.6979 113.807 39.6771 114.057 40.5312C114.307 41.3854 114.485 41.9792 114.589 42.3125C115.276 39.6458 115.964 37 116.651 34.375C117.36 31.75 117.964 29.0833 118.464 26.375C118.505 26.125 118.547 25.8542 118.589 25.5625C118.651 25.25 118.724 24.9688 118.807 24.7188C118.912 24.4688 119.057 24.2604 119.245 24.0938C119.432 23.9062 119.693 23.8125 120.026 23.8125C120.297 23.8125 120.63 23.875 121.026 24C121.443 24.125 121.839 24.3021 122.214 24.5312C122.589 24.7396 122.912 24.9896 123.182 25.2812C123.453 25.5521 123.589 25.8542 123.589 26.1875ZM147.521 67.375C147.563 68.5625 147.573 69.7708 147.552 71C147.532 72.2292 147.459 73.4583 147.334 74.6875C147.292 75.0417 147.188 75.3021 147.021 75.4688C146.855 75.6562 146.584 75.75 146.209 75.75C145.917 75.75 145.594 75.7188 145.24 75.6562C144.886 75.5938 144.542 75.4896 144.209 75.3438C143.896 75.1979 143.625 75 143.396 74.75C143.188 74.5208 143.084 74.2292 143.084 73.875C143.084 73.625 143.094 73.3854 143.115 73.1562C143.136 72.9479 143.167 72.7292 143.209 72.5C143.334 71.625 143.438 70.7396 143.521 69.8438C143.625 68.9479 143.73 68.0625 143.834 67.1875C142.417 66.875 141.344 66.2083 140.615 65.1875C139.886 64.1458 139.521 62.9167 139.521 61.5C139.521 61.2292 139.532 60.8646 139.552 60.4062C139.594 59.9271 139.667 59.4583 139.771 59C139.875 58.5417 140.032 58.1458 140.24 57.8125C140.469 57.4792 140.771 57.3125 141.146 57.3125C141.459 57.3125 141.813 57.4167 142.209 57.625C142.625 57.8125 142.959 58 143.209 58.1875C143.521 58.375 143.74 58.5938 143.865 58.8438C144.011 59.0729 144.084 59.375 144.084 59.75C144.084 60.1667 144.032 60.5729 143.927 60.9688C143.823 61.3646 143.771 61.7708 143.771 62.1875C143.771 62.6875 143.917 63.125 144.209 63.5C144.5 63.875 144.917 64.0625 145.459 64.0625C145.834 64.0625 146.188 63.9896 146.521 63.8438C146.875 63.6771 147.177 63.4583 147.427 63.1875C147.677 62.9167 147.875 62.6146 148.021 62.2812C148.188 61.9271 148.271 61.5625 148.271 61.1875C148.271 60.8958 148.23 60.6146 148.146 60.3438C148.084 60.0729 148 59.8125 147.896 59.5625C146.959 57.3542 145.938 55.1979 144.834 53.0938C143.75 50.9688 142.625 48.8542 141.459 46.75C141.021 45.8958 140.594 45.0104 140.177 44.0938C139.782 43.1771 139.584 42.2292 139.584 41.25C139.584 40.5833 139.698 39.9583 139.927 39.375C140.157 38.7708 140.469 38.2292 140.865 37.75C141.261 37.25 141.719 36.8229 142.24 36.4688C142.782 36.1146 143.355 35.8333 143.959 35.625C143.834 34.7083 143.709 33.7812 143.584 32.8438C143.459 31.9062 143.396 31 143.396 30.125C143.396 29.5833 143.5 29.2292 143.709 29.0625C143.917 28.8958 144.271 28.8125 144.771 28.8125C144.959 28.8125 145.198 28.8438 145.49 28.9062C145.802 28.9479 146.115 29.0208 146.427 29.125C146.74 29.2083 147.011 29.3229 147.24 29.4688C147.49 29.6146 147.646 29.7917 147.709 30C147.771 30.125 147.802 30.25 147.802 30.375C147.823 30.5 147.834 30.625 147.834 30.75C147.834 31 147.823 31.2396 147.802 31.4688C147.782 31.6979 147.75 31.9375 147.709 32.1875V35.5C148.188 35.6458 148.657 35.8542 149.115 36.125C149.573 36.375 149.969 36.6875 150.302 37.0625C150.657 37.4167 150.938 37.8333 151.146 38.3125C151.355 38.7708 151.459 39.2708 151.459 39.8125C151.459 40.4792 151.125 40.8125 150.459 40.8125C149.792 40.8125 149.271 40.6875 148.896 40.4375C148.542 40.1667 148.219 39.875 147.927 39.5625C147.657 39.25 147.375 38.9688 147.084 38.7188C146.813 38.4479 146.438 38.3125 145.959 38.3125C145.584 38.3125 145.24 38.3958 144.927 38.5625C144.615 38.7292 144.344 38.9583 144.115 39.25C143.886 39.5208 143.709 39.8333 143.584 40.1875C143.459 40.5208 143.396 40.8542 143.396 41.1875C143.396 41.9792 143.594 42.75 143.99 43.5C144.386 44.25 144.771 44.9583 145.146 45.625C145.938 47.0417 146.688 48.4583 147.396 49.875C148.125 51.2708 148.855 52.6875 149.584 54.125C149.855 54.6667 150.146 55.2292 150.459 55.8125C150.792 56.3958 151.094 56.9896 151.365 57.5938C151.657 58.1771 151.886 58.7812 152.052 59.4062C152.24 60.0104 152.334 60.625 152.334 61.25C152.334 61.9792 152.198 62.6562 151.927 63.2812C151.677 63.9062 151.334 64.4688 150.896 64.9688C150.459 65.4688 149.948 65.8958 149.365 66.25C148.782 66.6042 148.167 66.875 147.521 67.0625V67.375ZM179.175 58.75C179.175 61.1875 178.779 63.3125 177.988 65.125C177.217 66.9375 176.133 68.4479 174.738 69.6562C173.342 70.8646 171.675 71.7604 169.738 72.3438C167.821 72.9479 165.717 73.25 163.425 73.25H162.363C162.154 73.25 161.842 73.2396 161.425 73.2188C161.008 73.2188 160.581 73.1771 160.144 73.0938C159.727 73.0312 159.352 72.9167 159.019 72.75C158.706 72.5833 158.55 72.3542 158.55 72.0625C158.55 71.7292 158.623 71.3958 158.769 71.0625C158.935 70.75 159.144 70.4688 159.394 70.2188C159.644 69.9479 159.925 69.7292 160.238 69.5625C160.55 69.375 160.863 69.25 161.175 69.1875C161.008 68.9792 160.883 68.6979 160.8 68.3438C160.717 67.9896 160.644 67.6146 160.581 67.2188C160.519 66.8229 160.467 66.4375 160.425 66.0625C160.404 65.6667 160.383 65.3333 160.363 65.0625C159.988 61.8333 159.665 58.6146 159.394 55.4062C159.123 52.1979 158.988 48.9583 158.988 45.6875C158.988 43.6042 159.019 41.5417 159.081 39.5C159.144 37.4583 159.196 35.3958 159.238 33.3125C159.279 32.4583 159.29 31.6146 159.269 30.7812C159.269 29.9479 159.3 29.1042 159.363 28.25C159.238 28.2917 159.102 28.3125 158.956 28.3125C158.81 28.3125 158.654 28.3125 158.488 28.3125C158.175 28.3125 157.863 28.2604 157.55 28.1562C157.258 28.0312 157.113 27.75 157.113 27.3125C157.113 26.7708 157.227 26.3333 157.456 26C157.685 25.6667 157.977 25.4167 158.331 25.25C158.685 25.0625 159.081 24.9479 159.519 24.9062C159.977 24.8438 160.425 24.8125 160.863 24.8125C162.863 24.8125 164.8 25.0625 166.675 25.5625C168.55 26.0625 170.206 26.8333 171.644 27.875C173.081 28.9167 174.238 30.25 175.113 31.875C175.988 33.4792 176.425 35.3958 176.425 37.625C176.425 39.4583 176.092 41.2083 175.425 42.875C174.758 44.5417 173.779 46.0208 172.488 47.3125C173.654 47.8125 174.654 48.4688 175.488 49.2812C176.342 50.0729 177.04 50.9688 177.581 51.9688C178.123 52.9688 178.519 54.0521 178.769 55.2188C179.04 56.3646 179.175 57.5417 179.175 58.75ZM171.675 37.1875C171.675 35.9375 171.477 34.8333 171.081 33.875C170.685 32.8958 170.133 32.0521 169.425 31.3438C168.717 30.6146 167.873 30.0312 166.894 29.5938C165.915 29.1354 164.842 28.7917 163.675 28.5625C163.717 28.6667 163.738 28.7604 163.738 28.8438C163.738 28.9271 163.738 29 163.738 29.0625C163.738 31.0417 163.717 33 163.675 34.9375C163.633 36.8542 163.613 38.7917 163.613 40.75V44C163.613 44.4167 163.623 44.8438 163.644 45.2812C163.665 45.6979 163.675 46.125 163.675 46.5625C164.217 46.3333 164.758 46.2188 165.3 46.2188C165.863 46.1979 166.425 46.1875 166.988 46.1875C168.55 45.2083 169.717 43.9271 170.488 42.3438C171.279 40.7396 171.675 39.0208 171.675 37.1875ZM174.488 58.6875C174.488 57.6875 174.394 56.7188 174.206 55.7812C174.04 54.8438 173.738 53.9896 173.3 53.2188C172.863 52.4271 172.29 51.75 171.581 51.1875C170.873 50.625 169.988 50.2083 168.925 49.9375C167.342 50.8333 165.654 51.4375 163.863 51.75C164.029 54.1042 164.227 56.4583 164.456 58.8125C164.706 61.1458 165.05 63.4792 165.488 65.8125C165.592 66.3542 165.706 66.8958 165.831 67.4375C165.977 67.9583 166.071 68.5 166.113 69.0625C167.508 68.875 168.727 68.4896 169.769 67.9062C170.831 67.3021 171.706 66.5521 172.394 65.6562C173.102 64.7396 173.623 63.6875 173.956 62.5C174.31 61.3125 174.488 60.0417 174.488 58.6875ZM206.766 70.5C206.766 70.7917 206.631 71.0417 206.36 71.25C206.089 71.4583 205.766 71.625 205.391 71.75C205.016 71.875 204.631 71.9688 204.235 72.0312C203.86 72.0938 203.558 72.125 203.329 72.125C203.266 72.125 203.214 72.1354 203.173 72.1562C203.131 72.1771 203.079 72.1667 203.016 72.125C202.6 72.0417 202.235 71.8958 201.923 71.6875C201.61 71.5 201.329 71.2708 201.079 71C200.829 70.75 200.589 70.4688 200.36 70.1562C200.131 69.8438 199.891 69.5208 199.641 69.1875C197.975 67.0833 196.402 64.9271 194.923 62.7188C193.464 60.4896 192.141 58.1458 190.954 55.6875L190.579 56.125V68.1875C190.579 68.4167 190.568 68.6771 190.548 68.9688C190.527 69.2396 190.475 69.5 190.391 69.75C190.308 70 190.183 70.2083 190.016 70.375C189.85 70.5417 189.62 70.625 189.329 70.625C188.662 70.625 188.11 70.5208 187.673 70.3125C187.256 70.1042 186.923 69.8229 186.673 69.4688C186.443 69.0938 186.287 68.6562 186.204 68.1562C186.12 67.6562 186.079 67.1042 186.079 66.5C186.079 64.5417 186.058 62.5938 186.016 60.6562C185.975 58.7188 185.954 56.7708 185.954 54.8125C185.954 53.9583 185.985 53.125 186.048 52.3125C186.11 51.5 186.141 50.6667 186.141 49.8125C186.141 46.8333 186.027 43.875 185.798 40.9375C185.568 37.9792 185.329 35.0208 185.079 32.0625C185.016 31.375 184.943 30.6875 184.86 30C184.798 29.3125 184.766 28.625 184.766 27.9375C184.766 27.4375 184.933 27.1042 185.266 26.9375C185.6 26.7708 185.954 26.6875 186.329 26.6875C187.495 26.6875 188.412 26.9271 189.079 27.4062C189.745 27.8854 190.079 28.75 190.079 30C190.079 31.8958 190.141 33.75 190.266 35.5625C190.37 37.8333 190.433 40.0833 190.454 42.3125C190.495 44.5417 190.537 46.7917 190.579 49.0625C192.829 46.25 194.6 43.2292 195.891 40C197.183 36.75 198.162 33.3542 198.829 29.8125C198.85 29.6042 198.881 29.3438 198.923 29.0312C198.985 28.7188 199.058 28.4167 199.141 28.125C199.245 27.8125 199.381 27.5521 199.548 27.3438C199.735 27.1146 199.975 27 200.266 27C200.6 27 200.943 27.0625 201.298 27.1875C201.652 27.2917 201.964 27.4479 202.235 27.6562C202.527 27.8646 202.756 28.1146 202.923 28.4062C203.11 28.6979 203.204 29.0208 203.204 29.375C203.204 30.2917 203.089 31.1771 202.86 32.0312C202.652 32.8854 202.433 33.75 202.204 34.625C201.766 36.3958 201.298 38.0312 200.798 39.5312C200.318 41.0312 199.756 42.4792 199.11 43.875C198.485 45.25 197.756 46.6146 196.923 47.9688C196.089 49.3021 195.1 50.6875 193.954 52.125L195.266 54.75C196.37 56.8542 197.6 58.9062 198.954 60.9062C200.308 62.8854 201.787 64.7708 203.391 66.5625C203.933 67.1667 204.485 67.7292 205.048 68.25C205.631 68.75 206.141 69.3333 206.579 70C206.704 70.125 206.766 70.2917 206.766 70.5ZM229.889 47C229.889 47.875 229.868 48.8958 229.826 50.0625C229.805 51.2083 229.732 52.4375 229.607 53.75C229.503 55.0625 229.337 56.4062 229.107 57.7812C228.899 59.1562 228.618 60.5 228.264 61.8125C227.91 63.125 227.472 64.3646 226.951 65.5312C226.43 66.6979 225.805 67.7188 225.076 68.5938C224.347 69.4688 223.503 70.1667 222.545 70.6875C221.587 71.1875 220.493 71.4375 219.264 71.4375C218.035 71.4375 216.92 71.1562 215.92 70.5938C214.92 70.0104 214.076 69.25 213.389 68.3125C212.826 67.5625 212.326 66.6458 211.889 65.5625C211.472 64.4583 211.097 63.2604 210.764 61.9688C210.451 60.6771 210.18 59.3333 209.951 57.9375C209.722 56.5417 209.535 55.1667 209.389 53.8125C209.264 52.4583 209.17 51.1771 209.107 49.9688C209.045 48.7396 209.014 47.6667 209.014 46.75C209.014 45.2083 209.076 43.5938 209.201 41.9062C209.347 40.2188 209.607 38.5521 209.982 36.9062C210.357 35.2396 210.868 33.6354 211.514 32.0938C212.16 30.5521 212.993 29.1667 214.014 27.9375C214.118 27.8125 214.243 27.6667 214.389 27.5C214.555 27.3333 214.732 27.1771 214.92 27.0312C215.107 26.8646 215.295 26.7292 215.482 26.625C215.691 26.5 215.889 26.4375 216.076 26.4375C216.264 26.4375 216.441 26.4896 216.607 26.5938C216.795 26.6979 216.951 26.8333 217.076 27C217.514 26.75 217.972 26.5729 218.451 26.4688C218.951 26.3646 219.451 26.3125 219.951 26.3125C221.472 26.3125 222.774 26.6771 223.857 27.4062C224.962 28.1146 225.878 29.0521 226.607 30.2188C227.337 31.3854 227.92 32.7083 228.357 34.1875C228.795 35.6667 229.128 37.1771 229.357 38.7188C229.587 40.2604 229.732 41.75 229.795 43.1875C229.857 44.625 229.889 45.8958 229.889 47ZM225.014 48.375C225.014 47.8333 224.993 47.0104 224.951 45.9062C224.93 44.7812 224.857 43.5521 224.732 42.2188C224.607 40.8646 224.43 39.4792 224.201 38.0625C223.993 36.6458 223.701 35.3646 223.326 34.2188C222.951 33.0521 222.482 32.1042 221.92 31.375C221.378 30.625 220.722 30.25 219.951 30.25C219.639 30.25 219.357 30.3958 219.107 30.6875C218.857 30.9792 218.618 31.3542 218.389 31.8125C218.16 32.2708 217.951 32.7708 217.764 33.3125C217.576 33.8542 217.389 34.375 217.201 34.875C217.014 35.375 216.837 35.8229 216.67 36.2188C216.503 36.6146 216.326 36.8958 216.139 37.0625C216.076 37.125 215.972 37.1667 215.826 37.1875C215.701 37.1875 215.576 37.1875 215.451 37.1875C215.097 37.1875 214.764 37.125 214.451 37C214.097 38.4167 213.847 39.8333 213.701 41.25C213.576 42.6458 213.514 44.0625 213.514 45.5C213.514 45.9375 213.535 46.5938 213.576 47.4688C213.618 48.3438 213.68 49.3438 213.764 50.4688C213.847 51.5938 213.962 52.8021 214.107 54.0938C214.253 55.3854 214.43 56.6771 214.639 57.9688C214.847 59.2396 215.087 60.4688 215.357 61.6562C215.649 62.8229 215.982 63.8646 216.357 64.7812C216.732 65.6771 217.149 66.3958 217.607 66.9375C218.066 67.4792 218.576 67.75 219.139 67.75C219.451 67.75 219.732 67.6667 219.982 67.5C220.232 67.3125 220.472 67.125 220.701 66.9375C221.326 66.375 221.868 65.6354 222.326 64.7188C222.785 63.8021 223.17 62.7917 223.482 61.6875C223.795 60.5833 224.055 59.4271 224.264 58.2188C224.472 56.9896 224.628 55.7812 224.732 54.5938C224.837 53.4062 224.91 52.2812 224.951 51.2188C224.993 50.1354 225.014 49.1875 225.014 48.375ZM256.48 68.4375C256.48 68.8125 256.438 69.1875 256.355 69.5625C256.292 69.9167 256.167 70.2396 255.98 70.5312C255.813 70.8021 255.584 71.0208 255.292 71.1875C255.001 71.3542 254.626 71.4375 254.167 71.4375C253.605 71.4375 253.147 71.3125 252.792 71.0625C252.459 70.8333 252.147 70.5 251.855 70.0625C251.459 69.5 251.105 68.8542 250.792 68.125C250.48 67.375 250.199 66.6146 249.949 65.8438C249.699 65.0521 249.459 64.2708 249.23 63.5C249.022 62.7083 248.813 61.9792 248.605 61.3125C247.48 57.8125 246.428 54.3229 245.449 50.8438C244.49 47.3646 243.459 43.875 242.355 40.375C242.251 44.8958 242.167 49.3958 242.105 53.875C242.063 58.3542 242.042 62.8542 242.042 67.375C242.042 67.6042 242.032 67.8646 242.011 68.1562C241.99 68.4479 241.938 68.7292 241.855 69C241.772 69.25 241.636 69.4688 241.449 69.6562C241.282 69.8438 241.042 69.9375 240.73 69.9375C239.667 69.9375 238.855 69.6562 238.292 69.0938C237.751 68.5104 237.48 67.6875 237.48 66.625C237.48 60.7708 237.49 54.9688 237.511 49.2188C237.532 43.4688 237.542 37.6875 237.542 31.875V27.4375C237.542 26.9583 237.626 26.5625 237.792 26.25C237.98 25.9167 238.376 25.75 238.98 25.75C239.397 25.75 239.824 25.8125 240.261 25.9375C240.699 26.0417 241.084 26.2083 241.417 26.4375C241.772 26.6667 242.053 26.9688 242.261 27.3438C242.49 27.6979 242.605 28.125 242.605 28.625C243.48 30.2917 244.209 32.0104 244.792 33.7812C245.397 35.5521 245.98 37.3333 246.542 39.125C247.355 41.7292 248.157 44.3333 248.949 46.9375C249.74 49.5417 250.542 52.1667 251.355 54.8125C251.23 50.875 251.095 46.9479 250.949 43.0312C250.824 39.0938 250.563 35.1667 250.167 31.25C250.063 30.3958 249.938 29.5625 249.792 28.75C249.667 27.9375 249.605 27.1042 249.605 26.25C249.605 25.8125 249.751 25.5208 250.042 25.375C250.334 25.2083 250.667 25.125 251.042 25.125C251.688 25.125 252.24 25.1771 252.699 25.2812C253.157 25.3854 253.542 25.5625 253.855 25.8125C254.167 26.0625 254.407 26.4062 254.574 26.8438C254.74 27.2604 254.876 27.7917 254.98 28.4375C255.105 29.5625 255.199 30.6979 255.261 31.8438C255.345 32.9688 255.417 34.0833 255.48 35.1875C255.667 37.9792 255.803 40.75 255.886 43.5C255.97 46.25 256.042 49.0208 256.105 51.8125C256.167 54.5833 256.24 57.3542 256.324 60.125C256.428 62.875 256.48 65.6458 256.48 68.4375ZM288.134 48.5625C288.134 49.2292 288.009 49.75 287.759 50.125C287.53 50.4792 287.217 50.75 286.821 50.9375C286.425 51.125 285.977 51.2396 285.477 51.2812C284.998 51.3229 284.509 51.3542 284.009 51.375C285.134 52.5417 286.03 53.8854 286.696 55.4062C287.363 56.9271 287.696 58.5 287.696 60.125C287.696 61.7292 287.425 63.3021 286.884 64.8438C286.342 66.3646 285.571 67.7188 284.571 68.9062C283.571 70.0938 282.373 71.0521 280.977 71.7812C279.582 72.5104 278.03 72.875 276.321 72.875C274.967 72.875 273.748 72.6146 272.665 72.0938C271.582 71.5729 270.613 70.8646 269.759 69.9688C268.905 69.0521 268.155 68 267.509 66.8125C266.863 65.6042 266.311 64.3229 265.852 62.9688C265.394 61.5938 265.009 60.1771 264.696 58.7188C264.405 57.2604 264.165 55.8333 263.977 54.4375C263.811 53.0417 263.686 51.7188 263.602 50.4688C263.54 49.1979 263.509 48.0625 263.509 47.0625C263.509 45.8958 263.561 44.6458 263.665 43.3125C263.79 41.9792 263.988 40.6354 264.259 39.2812C264.53 37.9271 264.894 36.6042 265.352 35.3125C265.811 34.0208 266.394 32.8333 267.102 31.75C267.811 30.6458 268.644 29.6875 269.602 28.875C270.582 28.0417 271.717 27.4167 273.009 27C273.488 26.8333 273.967 26.7083 274.446 26.625C274.925 26.5417 275.405 26.5 275.884 26.5C277.967 26.5 279.696 27.0625 281.071 28.1875C282.467 29.3125 283.509 30.8333 284.196 32.75C284.321 33.0417 284.425 33.3438 284.509 33.6562C284.592 33.9479 284.634 34.25 284.634 34.5625C284.634 34.9375 284.498 35.1771 284.227 35.2812C283.957 35.3854 283.675 35.4375 283.384 35.4375C282.634 35.4375 282.03 35.3021 281.571 35.0312C281.113 34.7604 280.727 34.4271 280.415 34.0312C280.102 33.6354 279.821 33.1979 279.571 32.7188C279.342 32.2396 279.082 31.8021 278.79 31.4062C278.498 31.0104 278.134 30.6771 277.696 30.4062C277.259 30.1354 276.675 30 275.946 30C274.905 30 273.988 30.2917 273.196 30.875C272.405 31.4583 271.717 32.2292 271.134 33.1875C270.55 34.125 270.061 35.1979 269.665 36.4062C269.269 37.5938 268.957 38.7917 268.727 40C268.498 41.1875 268.332 42.3333 268.227 43.4375C268.123 44.5417 268.071 45.4792 268.071 46.25C268.071 47.0625 268.123 48.1875 268.227 49.625C268.332 51.0625 268.498 52.625 268.727 54.3125C268.977 56 269.3 57.7188 269.696 59.4688C270.113 61.1979 270.623 62.7708 271.227 64.1875C271.852 65.6042 272.582 66.7604 273.415 67.6562C274.269 68.5521 275.259 69 276.384 69C277.363 69 278.248 68.7188 279.04 68.1562C279.832 67.5729 280.498 66.8542 281.04 66C281.602 65.125 282.03 64.1979 282.321 63.2188C282.613 62.2188 282.759 61.2917 282.759 60.4375C282.759 59.625 282.644 58.8229 282.415 58.0312C282.186 57.2188 281.863 56.4583 281.446 55.75C281.03 55.0208 280.53 54.3542 279.946 53.75C279.363 53.125 278.717 52.6042 278.009 52.1875C277.759 52.0208 277.477 51.875 277.165 51.75C276.873 51.6042 276.571 51.4792 276.259 51.375C276.092 51.3542 275.769 51.3333 275.29 51.3125C274.811 51.2708 274.321 51.2188 273.821 51.1562C273.321 51.0938 272.873 51 272.477 50.875C272.082 50.7292 271.884 50.5208 271.884 50.25C271.884 49.875 271.946 49.4896 272.071 49.0938C272.196 48.6979 272.373 48.3438 272.602 48.0312C272.852 47.7188 273.134 47.4583 273.446 47.25C273.78 47.0417 274.155 46.9375 274.571 46.9375C275.175 46.9375 275.821 47.0312 276.509 47.2188C277.217 47.3854 277.842 47.5833 278.384 47.8125C279.425 47.75 280.457 47.6875 281.477 47.625C282.498 47.5417 283.509 47.4375 284.509 47.3125C284.863 47.2708 285.207 47.2188 285.54 47.1562C285.894 47.0938 286.259 47.0625 286.634 47.0625C287.134 47.0625 287.509 47.1771 287.759 47.4062C288.009 47.6354 288.134 48.0208 288.134 48.5625Z" fill="white"/>
</svg>
